%TF.GenerationSoftware,Altium Limited,Altium Designer,19.0.15 (446)*%
G04 Layer_Color=2752767*
%FSLAX45Y45*%
%MOMM*%
%TF.FileFunction,Drawing*%
%TF.Part,Single*%
G01*
G75*
%TA.AperFunction,NonConductor*%
%ADD74C,0.12700*%
%ADD75C,0.16933*%
D74*
X10363200Y5283200D02*
Y5384800D01*
X10464800D01*
Y5283200D01*
X10363200D01*
X10617200D02*
Y5384800D01*
X10718800D01*
Y5283200D01*
X10617200D01*
X10109200D02*
Y5384800D01*
X10210800D01*
Y5283200D01*
X10109200D01*
X9855200D02*
Y5384800D01*
X9956800D01*
Y5283200D01*
X9855200D01*
X10871200D02*
Y5384800D01*
X10972800D01*
Y5283200D01*
X10871200D01*
X11125200D02*
Y5384800D01*
X11226800D01*
Y5283200D01*
X11125200D01*
X10363200Y7061200D02*
Y7162800D01*
X10464800D01*
Y7061200D01*
X10363200D01*
X10617200D02*
Y7162800D01*
X10718800D01*
Y7061200D01*
X10617200D01*
X10109200D02*
Y7162800D01*
X10210800D01*
Y7061200D01*
X10109200D01*
X9855200D02*
Y7162800D01*
X9956800D01*
Y7061200D01*
X9855200D01*
X10871200D02*
Y7162800D01*
X10972800D01*
Y7061200D01*
X10871200D01*
X11125200D02*
Y7162800D01*
X11226800D01*
Y7061200D01*
X11125200D01*
X11313250Y6604200D02*
X11262450Y6705800D01*
X11364050D01*
X11313250Y6604200D01*
Y5740200D02*
X11262450Y5841800D01*
X11364050D01*
X11313250Y5740200D01*
X11363250Y5883200D02*
X11388650Y5908600D01*
X11414050D01*
X11388650Y5934000D01*
X11414050Y5959400D01*
X11388650D01*
X11363250Y5984800D01*
X11337850Y5959400D01*
X11312450D01*
X11337850Y5934000D01*
X11312450Y5908600D01*
X11337850D01*
X11363250Y5883200D01*
Y6461200D02*
X11388650Y6486600D01*
X11414050D01*
X11388650Y6512000D01*
X11414050Y6537400D01*
X11388650D01*
X11363250Y6562800D01*
X11337850Y6537400D01*
X11312450D01*
X11337850Y6512000D01*
X11312450Y6486600D01*
X11337850D01*
X11363250Y6461200D01*
X9728200Y6690845D02*
X9753600Y6741645D01*
X9728200Y6792445D01*
X9779000Y6767045D01*
X9829800Y6792445D01*
X9804400Y6741645D01*
X9829800Y6690845D01*
X9779000Y6716245D01*
X9728200Y6690845D01*
X11039200Y6632144D02*
X11064600Y6682944D01*
X11039200Y6733744D01*
X11090000Y6708344D01*
X11140800Y6733744D01*
X11115400Y6682944D01*
X11140800Y6632144D01*
X11090000Y6657544D01*
X11039200Y6632144D01*
X11430000Y5245100D02*
X11455400Y5295900D01*
X11430000Y5346700D01*
X11480800Y5321300D01*
X11531600Y5346700D01*
X11506200Y5295900D01*
X11531600Y5245100D01*
X11480800Y5270500D01*
X11430000Y5245100D01*
X11315700D02*
X11341100Y5295900D01*
X11315700Y5346700D01*
X11366500Y5321300D01*
X11417300Y5346700D01*
X11391900Y5295900D01*
X11417300Y5245100D01*
X11366500Y5270500D01*
X11315700Y5245100D01*
X9681168Y5384800D02*
X9706568Y5435600D01*
X9681168Y5486400D01*
X9731968Y5461000D01*
X9782768Y5486400D01*
X9757368Y5435600D01*
X9782768Y5384800D01*
X9731968Y5410200D01*
X9681168Y5384800D01*
Y5281700D02*
X9706568Y5332500D01*
X9681168Y5383300D01*
X9731968Y5357900D01*
X9782768Y5383300D01*
X9757368Y5332500D01*
X9782768Y5281700D01*
X9731968Y5307100D01*
X9681168Y5281700D01*
X10510860Y6461200D02*
X10536260Y6512000D01*
X10510860Y6562800D01*
X10561660Y6537400D01*
X10612460Y6562800D01*
X10587060Y6512000D01*
X10612460Y6461200D01*
X10561660Y6486600D01*
X10510860Y6461200D01*
X10020300Y6908800D02*
X10045700Y6959600D01*
X10020300Y7010400D01*
X10071100Y6985000D01*
X10121900Y7010400D01*
X10096500Y6959600D01*
X10121900Y6908800D01*
X10071100Y6934200D01*
X10020300Y6908800D01*
X10553700Y6553200D02*
X10579100Y6604000D01*
X10553700Y6654800D01*
X10604500Y6629400D01*
X10655300Y6654800D01*
X10629900Y6604000D01*
X10655300Y6553200D01*
X10604500Y6578600D01*
X10553700Y6553200D01*
X10947400Y6350000D02*
X10972800Y6400800D01*
X10947400Y6451600D01*
X10998200Y6426200D01*
X11049000Y6451600D01*
X11023600Y6400800D01*
X11049000Y6350000D01*
X10998200Y6375400D01*
X10947400Y6350000D01*
X11017000Y6455368D02*
X11042400Y6506168D01*
X11017000Y6556968D01*
X11067800Y6531568D01*
X11118600Y6556968D01*
X11093200Y6506168D01*
X11118600Y6455368D01*
X11067800Y6480768D01*
X11017000Y6455368D01*
X11430000Y6235700D02*
X11455400Y6286500D01*
X11430000Y6337300D01*
X11480800Y6311900D01*
X11531600Y6337300D01*
X11506200Y6286500D01*
X11531600Y6235700D01*
X11480800Y6261100D01*
X11430000Y6235700D01*
X10414000Y5461000D02*
X10439400Y5511800D01*
X10414000Y5562600D01*
X10464800Y5537200D01*
X10515600Y5562600D01*
X10490200Y5511800D01*
X10515600Y5461000D01*
X10464800Y5486400D01*
X10414000Y5461000D01*
X10020300Y5435600D02*
X10045700Y5486400D01*
X10020300Y5537200D01*
X10071100Y5511800D01*
X10121900Y5537200D01*
X10096500Y5486400D01*
X10121900Y5435600D01*
X10071100Y5461000D01*
X10020300Y5435600D01*
X11531600Y6718300D02*
X11557000Y6769100D01*
X11531600Y6819900D01*
X11582400Y6794500D01*
X11633200Y6819900D01*
X11607800Y6769100D01*
X11633200Y6718300D01*
X11582400Y6743700D01*
X11531600Y6718300D01*
X11312450Y6324600D02*
X11337850Y6375400D01*
X11312450Y6426200D01*
X11363250Y6400800D01*
X11414050Y6426200D01*
X11388650Y6375400D01*
X11414050Y6324600D01*
X11363250Y6350000D01*
X11312450Y6324600D01*
X11087100Y6337300D02*
X11112500Y6388100D01*
X11087100Y6438900D01*
X11137900Y6413500D01*
X11188700Y6438900D01*
X11163300Y6388100D01*
X11188700Y6337300D01*
X11137900Y6362700D01*
X11087100Y6337300D01*
X11277600Y5635200D02*
X11303000Y5686000D01*
X11277600Y5736800D01*
X11328400Y5711400D01*
X11379200Y5736800D01*
X11353800Y5686000D01*
X11379200Y5635200D01*
X11328400Y5660600D01*
X11277600Y5635200D01*
X11074400Y6019800D02*
X11099800Y6070600D01*
X11074400Y6121400D01*
X11125200Y6096000D01*
X11176000Y6121400D01*
X11150600Y6070600D01*
X11176000Y6019800D01*
X11125200Y6045200D01*
X11074400Y6019800D01*
X11109200Y5861398D02*
X11134600Y5912198D01*
X11109200Y5962998D01*
X11160000Y5937598D01*
X11210800Y5962998D01*
X11185400Y5912198D01*
X11210800Y5861398D01*
X11160000Y5886798D01*
X11109200Y5861398D01*
Y5791200D02*
X11134600Y5842000D01*
X11109200Y5892800D01*
X11160000Y5867400D01*
X11210800Y5892800D01*
X11185400Y5842000D01*
X11210800Y5791200D01*
X11160000Y5816600D01*
X11109200Y5791200D01*
X11722100Y5573800D02*
X11747500Y5624600D01*
X11722100Y5675400D01*
X11772900Y5650000D01*
X11823700Y5675400D01*
X11798300Y5624600D01*
X11823700Y5573800D01*
X11772900Y5599200D01*
X11722100Y5573800D01*
X10497696Y5803900D02*
X10523096Y5854700D01*
X10497696Y5905500D01*
X10548496Y5880100D01*
X10599296Y5905500D01*
X10573896Y5854700D01*
X10599296Y5803900D01*
X10548496Y5829300D01*
X10497696Y5803900D01*
X10160000Y6438900D02*
X10185400Y6489700D01*
X10160000Y6540500D01*
X10210800Y6515100D01*
X10261600Y6540500D01*
X10236200Y6489700D01*
X10261600Y6438900D01*
X10210800Y6464300D01*
X10160000Y6438900D01*
X9944100Y6350000D02*
X9969500Y6400800D01*
X9944100Y6451600D01*
X9994900Y6426200D01*
X10045700Y6451600D01*
X10020300Y6400800D01*
X10045700Y6350000D01*
X9994900Y6375400D01*
X9944100Y6350000D01*
Y5892800D02*
X9969500Y5943600D01*
X9944100Y5994400D01*
X9994900Y5969000D01*
X10045700Y5994400D01*
X10020300Y5943600D01*
X10045700Y5892800D01*
X9994900Y5918200D01*
X9944100Y5892800D01*
X9918700Y6134100D02*
X9944100Y6184900D01*
X9918700Y6235700D01*
X9969500Y6210300D01*
X10020300Y6235700D01*
X9994900Y6184900D01*
X10020300Y6134100D01*
X9969500Y6159500D01*
X9918700Y6134100D01*
X9436100Y5499100D02*
X9461500Y5549900D01*
X9436100Y5600700D01*
X9486900Y5575300D01*
X9537700Y5600700D01*
X9512300Y5549900D01*
X9537700Y5499100D01*
X9486900Y5524500D01*
X9436100Y5499100D01*
X9842500Y6134100D02*
X9867900Y6184900D01*
X9842500Y6235700D01*
X9893300Y6210300D01*
X9944100Y6235700D01*
X9918700Y6184900D01*
X9944100Y6134100D01*
X9893300Y6159500D01*
X9842500Y6134100D01*
X9436100Y5689600D02*
X9461500Y5740400D01*
X9436100Y5791200D01*
X9486900Y5765800D01*
X9537700Y5791200D01*
X9512300Y5740400D01*
X9537700Y5689600D01*
X9486900Y5715000D01*
X9436100Y5689600D01*
X10744200Y5384800D02*
X10769600Y5435600D01*
X10744200Y5486400D01*
X10795000Y5461000D01*
X10845800Y5486400D01*
X10820400Y5435600D01*
X10845800Y5384800D01*
X10795000Y5410200D01*
X10744200Y5384800D01*
X9791700Y6047200D02*
X9817100Y6098000D01*
X9791700Y6148800D01*
X9842500Y6123400D01*
X9893300Y6148800D01*
X9867900Y6098000D01*
X9893300Y6047200D01*
X9842500Y6072600D01*
X9791700Y6047200D01*
X11023600Y5410200D02*
X11049000Y5461000D01*
X11023600Y5511800D01*
X11074400Y5486400D01*
X11125200Y5511800D01*
X11099800Y5461000D01*
X11125200Y5410200D01*
X11074400Y5435600D01*
X11023600Y5410200D01*
X9855200Y5981700D02*
X9880600Y6032500D01*
X9855200Y6083300D01*
X9906000Y6057900D01*
X9956800Y6083300D01*
X9931400Y6032500D01*
X9956800Y5981700D01*
X9906000Y6007100D01*
X9855200Y5981700D01*
X10121900Y5573800D02*
X10147300Y5624600D01*
X10121900Y5675400D01*
X10172700Y5650000D01*
X10223500Y5675400D01*
X10198100Y5624600D01*
X10223500Y5573800D01*
X10172700Y5599200D01*
X10121900Y5573800D01*
X9931400Y5803900D02*
X9956800Y5854700D01*
X9931400Y5905500D01*
X9982200Y5880100D01*
X10033000Y5905500D01*
X10007600Y5854700D01*
X10033000Y5803900D01*
X9982200Y5829300D01*
X9931400Y5803900D01*
X9740900Y6350000D02*
X9766300Y6400800D01*
X9740900Y6451600D01*
X9791700Y6426200D01*
X9842500Y6451600D01*
X9817100Y6400800D01*
X9842500Y6350000D01*
X9791700Y6375400D01*
X9740900Y6350000D01*
X9690100Y6311900D02*
X9715500Y6362700D01*
X9690100Y6413500D01*
X9740900Y6388100D01*
X9791700Y6413500D01*
X9766300Y6362700D01*
X9791700Y6311900D01*
X9740900Y6337300D01*
X9690100Y6311900D01*
X9610457Y6680200D02*
X9635857Y6731000D01*
X9610457Y6781800D01*
X9661257Y6756400D01*
X9712057Y6781800D01*
X9686657Y6731000D01*
X9712057Y6680200D01*
X9661257Y6705600D01*
X9610457Y6680200D01*
X10121900Y6235700D02*
X10147300Y6286500D01*
X10121900Y6337300D01*
X10172700Y6311900D01*
X10223500Y6337300D01*
X10198100Y6286500D01*
X10223500Y6235700D01*
X10172700Y6261100D01*
X10121900Y6235700D01*
X10515600D02*
X10541000Y6286500D01*
X10515600Y6337300D01*
X10566400Y6311900D01*
X10617200Y6337300D01*
X10591800Y6286500D01*
X10617200Y6235700D01*
X10566400Y6261100D01*
X10515600Y6235700D01*
X10071100Y6837205D02*
X10096500Y6888005D01*
X10071100Y6938805D01*
X10121900Y6913405D01*
X10172700Y6938805D01*
X10147300Y6888005D01*
X10172700Y6837205D01*
X10121900Y6862605D01*
X10071100Y6837205D01*
Y6426200D02*
X10096500Y6477000D01*
X10071100Y6527800D01*
X10121900Y6502400D01*
X10172700Y6527800D01*
X10147300Y6477000D01*
X10172700Y6426200D01*
X10121900Y6451600D01*
X10071100Y6426200D01*
X9639300Y5689600D02*
X9664700Y5740400D01*
X9639300Y5791200D01*
X9690100Y5765800D01*
X9740900Y5791200D01*
X9715500Y5740400D01*
X9740900Y5689600D01*
X9690100Y5715000D01*
X9639300Y5689600D01*
X10358222Y5665800D02*
X10383622Y5716600D01*
X10358222Y5767400D01*
X10409022Y5742000D01*
X10459822Y5767400D01*
X10434422Y5716600D01*
X10459822Y5665800D01*
X10409022Y5691200D01*
X10358222Y5665800D01*
X10541000Y5943600D02*
X10566400Y5994400D01*
X10541000Y6045200D01*
X10591800Y6019800D01*
X10642600Y6045200D01*
X10617200Y5994400D01*
X10642600Y5943600D01*
X10591800Y5969000D01*
X10541000Y5943600D01*
X10579100Y5997200D02*
X10604500Y6048000D01*
X10579100Y6098800D01*
X10629900Y6073400D01*
X10680700Y6098800D01*
X10655300Y6048000D01*
X10680700Y5997200D01*
X10629900Y6022600D01*
X10579100Y5997200D01*
X9690100Y5537200D02*
X9715500Y5588000D01*
X9690100Y5638800D01*
X9740900Y5613400D01*
X9791700Y5638800D01*
X9766300Y5588000D01*
X9791700Y5537200D01*
X9740900Y5562600D01*
X9690100Y5537200D01*
X9893300Y5573800D02*
X9918700Y5624600D01*
X9893300Y5675400D01*
X9944100Y5650000D01*
X9994900Y5675400D01*
X9969500Y5624600D01*
X9994900Y5573800D01*
X9944100Y5599200D01*
X9893300Y5573800D01*
X9554200Y5219700D02*
X9579600Y5270500D01*
X9554200Y5321300D01*
X9605000Y5295900D01*
X9655800Y5321300D01*
X9630400Y5270500D01*
X9655800Y5219700D01*
X9605000Y5245100D01*
X9554200Y5219700D01*
X9347200Y5245100D02*
X9372600Y5295900D01*
X9347200Y5346700D01*
X9398000Y5321300D01*
X9448800Y5346700D01*
X9423400Y5295900D01*
X9448800Y5245100D01*
X9398000Y5270500D01*
X9347200Y5245100D01*
Y5549900D02*
X9372600Y5600700D01*
X9347200Y5651500D01*
X9398000Y5626100D01*
X9448800Y5651500D01*
X9423400Y5600700D01*
X9448800Y5549900D01*
X9398000Y5575300D01*
X9347200Y5549900D01*
Y5852200D02*
X9372600Y5903000D01*
X9347200Y5953800D01*
X9398000Y5928400D01*
X9448800Y5953800D01*
X9423400Y5903000D01*
X9448800Y5852200D01*
X9398000Y5877600D01*
X9347200Y5852200D01*
Y6172200D02*
X9372600Y6223000D01*
X9347200Y6273800D01*
X9398000Y6248400D01*
X9448800Y6273800D01*
X9423400Y6223000D01*
X9448800Y6172200D01*
X9398000Y6197600D01*
X9347200Y6172200D01*
X9359900Y6492200D02*
X9385300Y6543000D01*
X9359900Y6593800D01*
X9410700Y6568400D01*
X9461500Y6593800D01*
X9436100Y6543000D01*
X9461500Y6492200D01*
X9410700Y6517600D01*
X9359900Y6492200D01*
X9296400Y6832600D02*
X9321800Y6883400D01*
X9296400Y6934200D01*
X9347200Y6908800D01*
X9398000Y6934200D01*
X9372600Y6883400D01*
X9398000Y6832600D01*
X9347200Y6858000D01*
X9296400Y6832600D01*
Y6753330D02*
X9321800Y6804130D01*
X9296400Y6854930D01*
X9347200Y6829530D01*
X9398000Y6854930D01*
X9372600Y6804130D01*
X9398000Y6753330D01*
X9347200Y6778730D01*
X9296400Y6753330D01*
X9652000Y7061200D02*
X9677400Y7112000D01*
X9652000Y7162800D01*
X9702800Y7137400D01*
X9753600Y7162800D01*
X9728200Y7112000D01*
X9753600Y7061200D01*
X9702800Y7086600D01*
X9652000Y7061200D01*
Y6972300D02*
X9677400Y7023100D01*
X9652000Y7073900D01*
X9702800Y7048500D01*
X9753600Y7073900D01*
X9728200Y7023100D01*
X9753600Y6972300D01*
X9702800Y6997700D01*
X9652000Y6972300D01*
X9809889Y6738211D02*
X9835289Y6789011D01*
X9809889Y6839811D01*
X9860689Y6814411D01*
X9911489Y6839811D01*
X9886089Y6789011D01*
X9911489Y6738211D01*
X9860689Y6763611D01*
X9809889Y6738211D01*
X9982200Y6832600D02*
X10007600Y6883400D01*
X9982200Y6934200D01*
X10033000Y6908800D01*
X10083800Y6934200D01*
X10058400Y6883400D01*
X10083800Y6832600D01*
X10033000Y6858000D01*
X9982200Y6832600D01*
X10071100Y6540500D02*
X10096500Y6591300D01*
X10071100Y6642100D01*
X10121900Y6616700D01*
X10172700Y6642100D01*
X10147300Y6591300D01*
X10172700Y6540500D01*
X10121900Y6565900D01*
X10071100Y6540500D01*
X10401300Y6731000D02*
X10426700Y6781800D01*
X10401300Y6832600D01*
X10452100Y6807200D01*
X10502900Y6832600D01*
X10477500Y6781800D01*
X10502900Y6731000D01*
X10452100Y6756400D01*
X10401300Y6731000D01*
X10312400Y6807200D02*
X10337800Y6858000D01*
X10312400Y6908800D01*
X10363200Y6883400D01*
X10414000Y6908800D01*
X10388600Y6858000D01*
X10414000Y6807200D01*
X10363200Y6832600D01*
X10312400Y6807200D01*
X10160000Y6756400D02*
X10185400Y6807200D01*
X10160000Y6858000D01*
X10210800Y6832600D01*
X10261600Y6858000D01*
X10236200Y6807200D01*
X10261600Y6756400D01*
X10210800Y6781800D01*
X10160000Y6756400D01*
X11493500Y6970800D02*
X11518900Y7021600D01*
X11493500Y7072400D01*
X11544300Y7047000D01*
X11595100Y7072400D01*
X11569700Y7021600D01*
X11595100Y6970800D01*
X11544300Y6996200D01*
X11493500Y6970800D01*
X11811000Y7061200D02*
X11836400Y7112000D01*
X11811000Y7162800D01*
X11861800Y7137400D01*
X11912600Y7162800D01*
X11887200Y7112000D01*
X11912600Y7061200D01*
X11861800Y7086600D01*
X11811000Y7061200D01*
X10896600Y5865800D02*
X10922000Y5916600D01*
X10896600Y5967400D01*
X10947400Y5942000D01*
X10998200Y5967400D01*
X10972800Y5916600D01*
X10998200Y5865800D01*
X10947400Y5891200D01*
X10896600Y5865800D01*
X10807700Y6121400D02*
X10833100Y6172200D01*
X10807700Y6223000D01*
X10858500Y6197600D01*
X10909300Y6223000D01*
X10883900Y6172200D01*
X10909300Y6121400D01*
X10858500Y6146800D01*
X10807700Y6121400D01*
X10668000Y5981700D02*
X10693400Y6032500D01*
X10668000Y6083300D01*
X10718800Y6057900D01*
X10769600Y6083300D01*
X10744200Y6032500D01*
X10769600Y5981700D01*
X10718800Y6007100D01*
X10668000Y5981700D01*
X10731500Y5753100D02*
X10756900Y5803900D01*
X10731500Y5854700D01*
X10782300Y5829300D01*
X10833100Y5854700D01*
X10807700Y5803900D01*
X10833100Y5753100D01*
X10782300Y5778500D01*
X10731500Y5753100D01*
X10922000D02*
X10947400Y5803900D01*
X10922000Y5854700D01*
X10972800Y5829300D01*
X11023600Y5854700D01*
X10998200Y5803900D01*
X11023600Y5753100D01*
X10972800Y5778500D01*
X10922000Y5753100D01*
X11109200Y6540500D02*
X11134600Y6591300D01*
X11109200Y6642100D01*
X11160000Y6616700D01*
X11210800Y6642100D01*
X11185400Y6591300D01*
X11210800Y6540500D01*
X11160000Y6565900D01*
X11109200Y6540500D01*
Y6477000D02*
X11134600Y6527800D01*
X11109200Y6578600D01*
X11160000Y6553200D01*
X11210800Y6578600D01*
X11185400Y6527800D01*
X11210800Y6477000D01*
X11160000Y6502400D01*
X11109200Y6477000D01*
X10487270Y6819900D02*
X10512670Y6870700D01*
X10487270Y6921500D01*
X10538070Y6896100D01*
X10588870Y6921500D01*
X10563470Y6870700D01*
X10588870Y6819900D01*
X10538070Y6845300D01*
X10487270Y6819900D01*
X10752900Y6705600D02*
X10778300Y6756400D01*
X10752900Y6807200D01*
X10803700Y6781800D01*
X10854500Y6807200D01*
X10829100Y6756400D01*
X10854500Y6705600D01*
X10803700Y6731000D01*
X10752900Y6705600D01*
X10756900Y6858000D02*
X10782300Y6908800D01*
X10756900Y6959600D01*
X10807700Y6934200D01*
X10858500Y6959600D01*
X10833100Y6908800D01*
X10858500Y6858000D01*
X10807700Y6883400D01*
X10756900Y6858000D01*
X10752900Y6384100D02*
X10778300Y6434900D01*
X10752900Y6485700D01*
X10803700Y6460300D01*
X10854500Y6485700D01*
X10829100Y6434900D01*
X10854500Y6384100D01*
X10803700Y6409500D01*
X10752900Y6384100D01*
Y6527800D02*
X10778300Y6578600D01*
X10752900Y6629400D01*
X10803700Y6604000D01*
X10854500Y6629400D01*
X10829100Y6578600D01*
X10854500Y6527800D01*
X10803700Y6553200D01*
X10752900Y6527800D01*
X10858500Y6455368D02*
X10883900Y6506168D01*
X10858500Y6556968D01*
X10909300Y6531568D01*
X10960100Y6556968D01*
X10934700Y6506168D01*
X10960100Y6455368D01*
X10909300Y6480768D01*
X10858500Y6455368D01*
X10795000D02*
X10820400Y6506168D01*
X10795000Y6556968D01*
X10845800Y6531568D01*
X10896600Y6556968D01*
X10871200Y6506168D01*
X10896600Y6455368D01*
X10845800Y6480768D01*
X10795000Y6455368D01*
X10947400Y6413500D02*
X10972800Y6464300D01*
X10947400Y6515100D01*
X10998200Y6489700D01*
X11049000Y6515100D01*
X11023600Y6464300D01*
X11049000Y6413500D01*
X10998200Y6438900D01*
X10947400Y6413500D01*
X11087100Y6400800D02*
X11112500Y6451600D01*
X11087100Y6502400D01*
X11137900Y6477000D01*
X11188700Y6502400D01*
X11163300Y6451600D01*
X11188700Y6400800D01*
X11137900Y6426200D01*
X11087100Y6400800D01*
X11404600Y5384800D02*
X11430000Y5435600D01*
X11404600Y5486400D01*
X11455400Y5461000D01*
X11506200Y5486400D01*
X11480800Y5435600D01*
X11506200Y5384800D01*
X11455400Y5410200D01*
X11404600Y5384800D01*
X11811000Y5283200D02*
X11836400Y5334000D01*
X11811000Y5384800D01*
X11861800Y5359400D01*
X11912600Y5384800D01*
X11887200Y5334000D01*
X11912600Y5283200D01*
X11861800Y5308600D01*
X11811000Y5283200D01*
D75*
X11782050Y6655000D02*
G03*
X11782050Y6655000I-50800J0D01*
G01*
Y5791000D02*
G03*
X11782050Y5791000I-50800J0D01*
G01*
%TF.MD5,b572b066dee6ef6b4868b965edc9dab3*%
M02*
