%TF.GenerationSoftware,Altium Limited,Altium Designer,19.0.15 (446)*%
G04 Layer_Physical_Order=4*
G04 Layer_Color=16711680*
%FSLAX45Y45*%
%MOMM*%
%TF.FileFunction,Copper,L4,Bot,Signal*%
%TF.Part,Single*%
G01*
G75*
%TA.AperFunction,Conductor*%
%ADD28C,0.20000*%
%ADD29C,0.16000*%
%TA.AperFunction,ComponentPad*%
%ADD31C,1.80000*%
G04:AMPARAMS|DCode=32|XSize=1mm|YSize=1.8mm|CornerRadius=0.5mm|HoleSize=0mm|Usage=FLASHONLY|Rotation=90.000|XOffset=0mm|YOffset=0mm|HoleType=Round|Shape=RoundedRectangle|*
%AMROUNDEDRECTD32*
21,1,1.00000,0.80000,0,0,90.0*
21,1,0.00000,1.80000,0,0,90.0*
1,1,1.00000,0.40000,0.00000*
1,1,1.00000,0.40000,0.00000*
1,1,1.00000,-0.40000,0.00000*
1,1,1.00000,-0.40000,0.00000*
%
%ADD32ROUNDEDRECTD32*%
G04:AMPARAMS|DCode=33|XSize=1mm|YSize=2.1mm|CornerRadius=0.5mm|HoleSize=0mm|Usage=FLASHONLY|Rotation=90.000|XOffset=0mm|YOffset=0mm|HoleType=Round|Shape=RoundedRectangle|*
%AMROUNDEDRECTD33*
21,1,1.00000,1.10000,0,0,90.0*
21,1,0.00000,2.10000,0,0,90.0*
1,1,1.00000,0.55000,0.00000*
1,1,1.00000,0.55000,0.00000*
1,1,1.00000,-0.55000,0.00000*
1,1,1.00000,-0.55000,0.00000*
%
%ADD33ROUNDEDRECTD33*%
%TA.AperFunction,ViaPad*%
%ADD34C,0.50000*%
%TA.AperFunction,SMDPad,CuDef*%
%ADD35C,1.40000*%
G36*
X11938000Y5207000D02*
X9271000D01*
Y7239000D01*
X11938000D01*
Y5207000D01*
D02*
G37*
%LPC*%
G36*
X11874500Y7153316D02*
Y7124700D01*
X11903116D01*
X11902305Y7128778D01*
X11892801Y7143001D01*
X11878578Y7152505D01*
X11874500Y7153316D01*
D02*
G37*
G36*
X11849100D02*
X11845022Y7152505D01*
X11830799Y7143001D01*
X11821295Y7128778D01*
X11820484Y7124700D01*
X11849100D01*
Y7153316D01*
D02*
G37*
G36*
X10934700Y7219260D02*
Y7124700D01*
X11029260D01*
X11027220Y7140193D01*
X11016338Y7166466D01*
X10999026Y7189026D01*
X10976466Y7206338D01*
X10950193Y7217220D01*
X10934700Y7219260D01*
D02*
G37*
G36*
X10909300D02*
X10893807Y7217220D01*
X10867534Y7206338D01*
X10844974Y7189026D01*
X10827662Y7166466D01*
X10816780Y7140193D01*
X10814740Y7124700D01*
X10909300D01*
Y7219260D01*
D02*
G37*
G36*
X9715500Y7153316D02*
Y7124700D01*
X9744116D01*
X9743305Y7128778D01*
X9733801Y7143001D01*
X9719578Y7152505D01*
X9715500Y7153316D01*
D02*
G37*
G36*
X9690100D02*
X9686022Y7152505D01*
X9671799Y7143001D01*
X9662295Y7128778D01*
X9661484Y7124700D01*
X9690100D01*
Y7153316D01*
D02*
G37*
G36*
X11903116Y7099300D02*
X11874500D01*
Y7070684D01*
X11878578Y7071495D01*
X11892801Y7080999D01*
X11902305Y7095222D01*
X11903116Y7099300D01*
D02*
G37*
G36*
X11849100D02*
X11820484D01*
X11821295Y7095222D01*
X11830799Y7080999D01*
X11845022Y7071495D01*
X11849100Y7070684D01*
Y7099300D01*
D02*
G37*
G36*
X9744116D02*
X9661484D01*
X9662295Y7095222D01*
X9671799Y7080999D01*
X9681325Y7074634D01*
Y7060466D01*
X9671799Y7054101D01*
X9662295Y7039878D01*
X9661484Y7035800D01*
X9744116D01*
X9743305Y7039878D01*
X9733801Y7054101D01*
X9724275Y7060466D01*
Y7074634D01*
X9733801Y7080999D01*
X9743305Y7095222D01*
X9744116Y7099300D01*
D02*
G37*
G36*
X11557000Y7062916D02*
Y7034300D01*
X11585616D01*
X11584805Y7038378D01*
X11575301Y7052601D01*
X11561078Y7062105D01*
X11557000Y7062916D01*
D02*
G37*
G36*
X11531600D02*
X11527522Y7062105D01*
X11513299Y7052601D01*
X11503795Y7038378D01*
X11502984Y7034300D01*
X11531600D01*
Y7062916D01*
D02*
G37*
G36*
X11176000Y7212863D02*
X11149895Y7209426D01*
X11125569Y7199350D01*
X11104679Y7183321D01*
X11088650Y7162431D01*
X11078574Y7138105D01*
X11075137Y7112000D01*
X11078574Y7085895D01*
X11088650Y7061569D01*
X11104679Y7040679D01*
X11125569Y7024650D01*
X11149895Y7014574D01*
X11176000Y7011137D01*
X11202105Y7014574D01*
X11226431Y7024650D01*
X11247321Y7040679D01*
X11263350Y7061569D01*
X11273426Y7085895D01*
X11276863Y7112000D01*
X11273426Y7138105D01*
X11263350Y7162431D01*
X11247321Y7183321D01*
X11226431Y7199350D01*
X11202105Y7209426D01*
X11176000Y7212863D01*
D02*
G37*
G36*
X10668000D02*
X10641895Y7209426D01*
X10617569Y7199350D01*
X10596679Y7183321D01*
X10580650Y7162431D01*
X10570574Y7138105D01*
X10567137Y7112000D01*
X10570574Y7085895D01*
X10580650Y7061569D01*
X10596679Y7040679D01*
X10617569Y7024650D01*
X10641895Y7014574D01*
X10668000Y7011137D01*
X10694105Y7014574D01*
X10718431Y7024650D01*
X10739321Y7040679D01*
X10755350Y7061569D01*
X10765426Y7085895D01*
X10768863Y7112000D01*
X10765426Y7138105D01*
X10755350Y7162431D01*
X10739321Y7183321D01*
X10718431Y7199350D01*
X10694105Y7209426D01*
X10668000Y7212863D01*
D02*
G37*
G36*
X10414000D02*
X10387895Y7209426D01*
X10363569Y7199350D01*
X10342679Y7183321D01*
X10326650Y7162431D01*
X10316574Y7138105D01*
X10313137Y7112000D01*
X10316574Y7085895D01*
X10326650Y7061569D01*
X10342679Y7040679D01*
X10363569Y7024650D01*
X10387895Y7014574D01*
X10414000Y7011137D01*
X10440105Y7014574D01*
X10464431Y7024650D01*
X10485321Y7040679D01*
X10501350Y7061569D01*
X10511426Y7085895D01*
X10514863Y7112000D01*
X10511426Y7138105D01*
X10501350Y7162431D01*
X10485321Y7183321D01*
X10464431Y7199350D01*
X10440105Y7209426D01*
X10414000Y7212863D01*
D02*
G37*
G36*
X10160000D02*
X10133895Y7209426D01*
X10109569Y7199350D01*
X10088679Y7183321D01*
X10072650Y7162431D01*
X10062574Y7138105D01*
X10059137Y7112000D01*
X10062574Y7085895D01*
X10072650Y7061569D01*
X10088679Y7040679D01*
X10109569Y7024650D01*
X10133895Y7014574D01*
X10160000Y7011137D01*
X10186105Y7014574D01*
X10210431Y7024650D01*
X10231321Y7040679D01*
X10247350Y7061569D01*
X10257426Y7085895D01*
X10260863Y7112000D01*
X10257426Y7138105D01*
X10247350Y7162431D01*
X10231321Y7183321D01*
X10210431Y7199350D01*
X10186105Y7209426D01*
X10160000Y7212863D01*
D02*
G37*
G36*
X9906000D02*
X9879895Y7209426D01*
X9855569Y7199350D01*
X9834679Y7183321D01*
X9818650Y7162431D01*
X9808574Y7138105D01*
X9805137Y7112000D01*
X9808574Y7085895D01*
X9818650Y7061569D01*
X9834679Y7040679D01*
X9855569Y7024650D01*
X9879895Y7014574D01*
X9906000Y7011137D01*
X9932105Y7014574D01*
X9956431Y7024650D01*
X9977321Y7040679D01*
X9993350Y7061569D01*
X10003426Y7085895D01*
X10006863Y7112000D01*
X10003426Y7138105D01*
X9993350Y7162431D01*
X9977321Y7183321D01*
X9956431Y7199350D01*
X9932105Y7209426D01*
X9906000Y7212863D01*
D02*
G37*
G36*
X11029260Y7099300D02*
X10934700D01*
Y7004740D01*
X10950193Y7006780D01*
X10976466Y7017662D01*
X10999026Y7034974D01*
X11016338Y7057534D01*
X11027220Y7083807D01*
X11029260Y7099300D01*
D02*
G37*
G36*
X10909300D02*
X10814740D01*
X10816780Y7083807D01*
X10827662Y7057534D01*
X10844974Y7034974D01*
X10867534Y7017662D01*
X10893807Y7006780D01*
X10909300Y7004740D01*
Y7099300D01*
D02*
G37*
G36*
X9744116Y7010400D02*
X9715500D01*
Y6981784D01*
X9719578Y6982595D01*
X9733801Y6992099D01*
X9743305Y7006322D01*
X9744116Y7010400D01*
D02*
G37*
G36*
X9690100D02*
X9661484D01*
X9662295Y7006322D01*
X9671799Y6992099D01*
X9686022Y6982595D01*
X9690100Y6981784D01*
Y7010400D01*
D02*
G37*
G36*
X11585616Y7008900D02*
X11557000D01*
Y6980284D01*
X11561078Y6981095D01*
X11575301Y6990599D01*
X11584805Y7004822D01*
X11585616Y7008900D01*
D02*
G37*
G36*
X11531600D02*
X11502984D01*
X11503795Y7004822D01*
X11513299Y6990599D01*
X11527522Y6981095D01*
X11531600Y6980284D01*
Y7008900D01*
D02*
G37*
G36*
X10820400Y6950116D02*
Y6921500D01*
X10849016D01*
X10848205Y6925578D01*
X10838701Y6939801D01*
X10824478Y6949305D01*
X10820400Y6950116D01*
D02*
G37*
G36*
X10795000D02*
X10790922Y6949305D01*
X10776699Y6939801D01*
X10767195Y6925578D01*
X10766384Y6921500D01*
X10795000D01*
Y6950116D01*
D02*
G37*
G36*
X9359900Y6924716D02*
Y6896100D01*
X9388516D01*
X9387705Y6900178D01*
X9378201Y6914401D01*
X9363978Y6923905D01*
X9359900Y6924716D01*
D02*
G37*
G36*
X9334500D02*
X9330422Y6923905D01*
X9316199Y6914401D01*
X9306695Y6900178D01*
X9305884Y6896100D01*
X9334500D01*
Y6924716D01*
D02*
G37*
G36*
X10550770Y6912016D02*
Y6883400D01*
X10579386D01*
X10578575Y6887478D01*
X10569071Y6901701D01*
X10554847Y6911205D01*
X10550770Y6912016D01*
D02*
G37*
G36*
X10525370D02*
X10521292Y6911205D01*
X10507068Y6901701D01*
X10497564Y6887478D01*
X10496753Y6883400D01*
X10525370D01*
Y6912016D01*
D02*
G37*
G36*
X10849016Y6896100D02*
X10820400D01*
Y6867484D01*
X10824478Y6868295D01*
X10838701Y6877799D01*
X10848205Y6892022D01*
X10849016Y6896100D01*
D02*
G37*
G36*
X10795000D02*
X10766384D01*
X10767195Y6892022D01*
X10776699Y6877799D01*
X10790922Y6868295D01*
X10795000Y6867484D01*
Y6896100D01*
D02*
G37*
G36*
X10579386Y6858000D02*
X10550770D01*
Y6829384D01*
X10554847Y6830195D01*
X10569071Y6839699D01*
X10578575Y6853922D01*
X10579386Y6858000D01*
D02*
G37*
G36*
X10525370D02*
X10496753D01*
X10497564Y6853922D01*
X10507068Y6839699D01*
X10521292Y6830195D01*
X10525370Y6829384D01*
Y6858000D01*
D02*
G37*
G36*
X9388516Y6870700D02*
X9305884D01*
X9306695Y6866622D01*
X9316199Y6852399D01*
X9319617Y6850115D01*
Y6837415D01*
X9316199Y6835131D01*
X9306695Y6820908D01*
X9305884Y6816830D01*
X9388516D01*
X9387705Y6820908D01*
X9378201Y6835131D01*
X9374783Y6837415D01*
Y6850115D01*
X9378201Y6852399D01*
X9387705Y6866622D01*
X9388516Y6870700D01*
D02*
G37*
G36*
X10210800Y6842886D02*
X10197144Y6840169D01*
X10185566Y6832434D01*
X10177831Y6820856D01*
X10175114Y6807200D01*
X10177831Y6793544D01*
X10185566Y6781966D01*
X10197144Y6774231D01*
X10210800Y6771514D01*
X10224456Y6774231D01*
X10236034Y6781966D01*
X10243769Y6793544D01*
X10246486Y6807200D01*
X10243769Y6820856D01*
X10236034Y6832434D01*
X10224456Y6840169D01*
X10210800Y6842886D01*
D02*
G37*
G36*
X10816400Y6797716D02*
Y6769100D01*
X10845016D01*
X10844205Y6773178D01*
X10834701Y6787401D01*
X10820478Y6796905D01*
X10816400Y6797716D01*
D02*
G37*
G36*
X10791000D02*
X10786922Y6796905D01*
X10772699Y6787401D01*
X10763195Y6773178D01*
X10762384Y6769100D01*
X10791000D01*
Y6797716D01*
D02*
G37*
G36*
X9388516Y6791430D02*
X9359900D01*
Y6762814D01*
X9363978Y6763625D01*
X9378201Y6773129D01*
X9387705Y6787352D01*
X9388516Y6791430D01*
D02*
G37*
G36*
X9334500D02*
X9305884D01*
X9306695Y6787352D01*
X9316199Y6773129D01*
X9330422Y6763625D01*
X9334500Y6762814D01*
Y6791430D01*
D02*
G37*
G36*
X9791700Y6782962D02*
Y6754345D01*
X9820316D01*
X9819505Y6758423D01*
X9810001Y6772647D01*
X9795778Y6782151D01*
X9791700Y6782962D01*
D02*
G37*
G36*
X9766300D02*
X9762222Y6782151D01*
X9747999Y6772647D01*
X9738495Y6758423D01*
X9737684Y6754345D01*
X9766300D01*
Y6782962D01*
D02*
G37*
G36*
X9860689Y6824697D02*
X9847033Y6821980D01*
X9835455Y6814245D01*
X9827720Y6802667D01*
X9825003Y6789011D01*
X9827720Y6775355D01*
X9835455Y6763777D01*
X9847033Y6756042D01*
X9860689Y6753325D01*
X9874345Y6756042D01*
X9885923Y6763777D01*
X9893658Y6775355D01*
X9896375Y6789011D01*
X9893658Y6802667D01*
X9885923Y6814245D01*
X9874345Y6821980D01*
X9860689Y6824697D01*
D02*
G37*
G36*
X10439400Y6769100D02*
X10410784D01*
X10411595Y6765022D01*
X10421099Y6750799D01*
X10435322Y6741295D01*
X10439400Y6740484D01*
Y6769100D01*
D02*
G37*
G36*
X11582400Y6804786D02*
X11568744Y6802069D01*
X11557166Y6794334D01*
X11549431Y6782756D01*
X11546714Y6769100D01*
X11547850Y6763389D01*
X11504481Y6720019D01*
X11500060Y6713404D01*
X11498508Y6705600D01*
Y6421947D01*
X11472353Y6395792D01*
X11391719D01*
X11388483Y6400634D01*
X11376906Y6408369D01*
X11363250Y6411086D01*
X11349594Y6408369D01*
X11338016Y6400634D01*
X11330281Y6389056D01*
X11327564Y6375400D01*
X11330281Y6361744D01*
X11338016Y6350166D01*
X11349594Y6342431D01*
X11363250Y6339714D01*
X11376906Y6342431D01*
X11388483Y6350166D01*
X11391719Y6355008D01*
X11480800D01*
X11488604Y6356560D01*
X11495219Y6360981D01*
X11533319Y6399081D01*
X11537740Y6405696D01*
X11539292Y6413500D01*
Y6697153D01*
X11576689Y6734550D01*
X11582400Y6733414D01*
X11596056Y6736131D01*
X11607634Y6743866D01*
X11615369Y6755444D01*
X11618086Y6769100D01*
X11615369Y6782756D01*
X11607634Y6794334D01*
X11596056Y6802069D01*
X11582400Y6804786D01*
D02*
G37*
G36*
X10845016Y6743700D02*
X10816400D01*
Y6715084D01*
X10820478Y6715895D01*
X10834701Y6725399D01*
X10844205Y6739622D01*
X10845016Y6743700D01*
D02*
G37*
G36*
X10791000D02*
X10762384D01*
X10763195Y6739622D01*
X10772699Y6725399D01*
X10786922Y6715895D01*
X10791000Y6715084D01*
Y6743700D01*
D02*
G37*
G36*
X9820316Y6728945D02*
X9791700D01*
Y6700329D01*
X9795778Y6701140D01*
X9810001Y6710644D01*
X9819505Y6724868D01*
X9820316Y6728945D01*
D02*
G37*
G36*
X9766300D02*
X9737684D01*
X9738495Y6724868D01*
X9747999Y6710644D01*
X9762222Y6701140D01*
X9766300Y6700329D01*
Y6728945D01*
D02*
G37*
G36*
X11102700Y6724261D02*
Y6695644D01*
X11131316D01*
X11130505Y6699722D01*
X11121001Y6713946D01*
X11106778Y6723450D01*
X11102700Y6724261D01*
D02*
G37*
G36*
X11077300D02*
X11073222Y6723450D01*
X11058999Y6713946D01*
X11049495Y6699722D01*
X11048684Y6695644D01*
X11077300D01*
Y6724261D01*
D02*
G37*
G36*
X9563100Y6900590D02*
X9542216Y6897841D01*
X9522755Y6889780D01*
X9506043Y6876957D01*
X9493220Y6860245D01*
X9485159Y6840784D01*
X9482410Y6819900D01*
X9485159Y6799016D01*
X9493220Y6779555D01*
X9506043Y6762843D01*
X9522755Y6750020D01*
X9542216Y6741959D01*
X9563100Y6739210D01*
X9583984Y6741959D01*
X9603445Y6750020D01*
X9605471Y6751575D01*
X9616591Y6740455D01*
X9616763Y6740340D01*
X9625660Y6731443D01*
X9625572Y6731000D01*
X9628288Y6717344D01*
X9636024Y6705766D01*
X9647601Y6698031D01*
X9661257Y6695314D01*
X9674914Y6698031D01*
X9686491Y6705766D01*
X9694226Y6717344D01*
X9696943Y6731000D01*
X9694226Y6744656D01*
X9686491Y6756234D01*
X9674914Y6763969D01*
X9661257Y6766686D01*
X9647601Y6763969D01*
X9646067Y6762944D01*
X9642602Y6766409D01*
X9642431Y6766523D01*
X9631425Y6777529D01*
X9632980Y6779555D01*
X9641041Y6799016D01*
X9643790Y6819900D01*
X9641041Y6840784D01*
X9632980Y6860245D01*
X9620157Y6876957D01*
X9603445Y6889780D01*
X9583984Y6897841D01*
X9563100Y6900590D01*
D02*
G37*
G36*
X11368250Y6723587D02*
X11325950D01*
Y6667701D01*
X11435165D01*
X11434500Y6672751D01*
X11427648Y6689293D01*
X11416748Y6703498D01*
X11402543Y6714398D01*
X11386002Y6721249D01*
X11368250Y6723587D01*
D02*
G37*
G36*
X11300550D02*
X11258250D01*
X11240498Y6721249D01*
X11223956Y6714398D01*
X11209752Y6703498D01*
X11198852Y6689293D01*
X11192000Y6672751D01*
X11191335Y6667701D01*
X11300550D01*
Y6723587D01*
D02*
G37*
G36*
X11771250D02*
X11743950D01*
Y6667700D01*
X11838164D01*
X11837499Y6672751D01*
X11830647Y6689293D01*
X11819748Y6703498D01*
X11805543Y6714398D01*
X11789001Y6721249D01*
X11771250Y6723587D01*
D02*
G37*
G36*
X11718550D02*
X11691250D01*
X11673498Y6721249D01*
X11656957Y6714398D01*
X11642752Y6703498D01*
X11631852Y6689293D01*
X11625000Y6672751D01*
X11624335Y6667700D01*
X11718550D01*
Y6723587D01*
D02*
G37*
G36*
X11131316Y6670244D02*
X11102700D01*
Y6641628D01*
X11106778Y6642439D01*
X11121001Y6651943D01*
X11130505Y6666167D01*
X11131316Y6670244D01*
D02*
G37*
G36*
X11077300D02*
X11048684D01*
X11049495Y6666167D01*
X11058999Y6651943D01*
X11073222Y6642439D01*
X11077300Y6641628D01*
Y6670244D01*
D02*
G37*
G36*
X11300550Y6642301D02*
X11191335D01*
X11192000Y6637248D01*
X11192195Y6636778D01*
X11181936Y6628358D01*
X11176778Y6631805D01*
X11172700Y6632616D01*
Y6591300D01*
X11160000D01*
Y6578600D01*
X11118684D01*
X11119495Y6574522D01*
X11128999Y6560299D01*
Y6558801D01*
X11119495Y6544578D01*
X11118684Y6540500D01*
X11201316D01*
X11200505Y6544578D01*
X11191001Y6558801D01*
Y6560299D01*
X11200505Y6574522D01*
X11203842Y6591300D01*
X11202967Y6595700D01*
X11214491Y6602865D01*
X11223956Y6595602D01*
X11240498Y6588750D01*
X11258250Y6586413D01*
X11300550D01*
Y6642301D01*
D02*
G37*
G36*
X11147300Y6632616D02*
X11143222Y6631805D01*
X11128999Y6622301D01*
X11119495Y6608078D01*
X11118684Y6604000D01*
X11147300D01*
Y6632616D01*
D02*
G37*
G36*
X10134600D02*
Y6604000D01*
X10163216D01*
X10162405Y6608078D01*
X10152901Y6622301D01*
X10138678Y6631805D01*
X10134600Y6632616D01*
D02*
G37*
G36*
X10109200D02*
X10105122Y6631805D01*
X10090899Y6622301D01*
X10081395Y6608078D01*
X10080584Y6604000D01*
X10109200D01*
Y6632616D01*
D02*
G37*
G36*
X10816400Y6619916D02*
Y6591300D01*
X10845016D01*
X10844205Y6595378D01*
X10834701Y6609601D01*
X10820478Y6619105D01*
X10816400Y6619916D01*
D02*
G37*
G36*
X10791000D02*
X10786922Y6619105D01*
X10772699Y6609601D01*
X10763195Y6595378D01*
X10762384Y6591300D01*
X10791000D01*
Y6619916D01*
D02*
G37*
G36*
X11838164Y6642300D02*
X11743950D01*
Y6586413D01*
X11771250D01*
X11789001Y6588750D01*
X11805543Y6595602D01*
X11819748Y6606502D01*
X11830647Y6620707D01*
X11837499Y6637248D01*
X11838164Y6642300D01*
D02*
G37*
G36*
X11718550D02*
X11624335D01*
X11625000Y6637248D01*
X11631852Y6620707D01*
X11642752Y6606502D01*
X11656957Y6595602D01*
X11673498Y6588750D01*
X11691250Y6586413D01*
X11718550D01*
Y6642300D01*
D02*
G37*
G36*
X11435165Y6642301D02*
X11325950D01*
Y6586413D01*
X11368250D01*
X11386002Y6588750D01*
X11402543Y6595602D01*
X11416748Y6606502D01*
X11427648Y6620707D01*
X11434500Y6637248D01*
X11435165Y6642301D01*
D02*
G37*
G36*
X9423400Y6584316D02*
Y6555700D01*
X9452016D01*
X9451205Y6559778D01*
X9441701Y6574001D01*
X9427478Y6583505D01*
X9423400Y6584316D01*
D02*
G37*
G36*
X9398000D02*
X9393922Y6583505D01*
X9379699Y6574001D01*
X9370195Y6559778D01*
X9369384Y6555700D01*
X9398000D01*
Y6584316D01*
D02*
G37*
G36*
X10163216Y6578600D02*
X10134600D01*
Y6549984D01*
X10138678Y6550795D01*
X10152901Y6560299D01*
X10162405Y6574522D01*
X10163216Y6578600D01*
D02*
G37*
G36*
X10109200D02*
X10080584D01*
X10081395Y6574522D01*
X10090899Y6560299D01*
X10105122Y6550795D01*
X10109200Y6549984D01*
Y6578600D01*
D02*
G37*
G36*
X10574360Y6553316D02*
Y6524700D01*
X10602976D01*
X10602165Y6528778D01*
X10592661Y6543001D01*
X10578438Y6552505D01*
X10574360Y6553316D01*
D02*
G37*
G36*
X10548960D02*
X10544882Y6552505D01*
X10530659Y6543001D01*
X10521155Y6528778D01*
X10520344Y6524700D01*
X10548960D01*
Y6553316D01*
D02*
G37*
G36*
X10922000Y6547484D02*
Y6518868D01*
X10950616D01*
X10949805Y6522946D01*
X10940301Y6537169D01*
X10926078Y6546673D01*
X10922000Y6547484D01*
D02*
G37*
G36*
X9452016Y6530300D02*
X9423400D01*
Y6501684D01*
X9427478Y6502495D01*
X9441701Y6511999D01*
X9451205Y6526222D01*
X9452016Y6530300D01*
D02*
G37*
G36*
X9398000D02*
X9369384D01*
X9370195Y6526222D01*
X9379699Y6511999D01*
X9393922Y6502495D01*
X9398000Y6501684D01*
Y6530300D01*
D02*
G37*
G36*
X11067800Y6541854D02*
X11054144Y6539137D01*
X11042566Y6531401D01*
X11034831Y6519824D01*
X11032114Y6506168D01*
X11034031Y6496533D01*
X11026523Y6491574D01*
X11022327Y6490273D01*
X11011856Y6497269D01*
X10998200Y6499986D01*
X10984544Y6497269D01*
X10972966Y6489534D01*
X10965231Y6477956D01*
X10962514Y6464300D01*
X10965231Y6450644D01*
X10972966Y6439066D01*
X10973215Y6438900D01*
Y6426200D01*
X10972966Y6426034D01*
X10965231Y6414456D01*
X10962514Y6400800D01*
X10965231Y6387144D01*
X10972966Y6375566D01*
X10984544Y6367831D01*
X10998200Y6365114D01*
X11011856Y6367831D01*
X11023434Y6375566D01*
X11031169Y6387144D01*
X11033886Y6400800D01*
X11031169Y6414456D01*
X11023434Y6426034D01*
X11023185Y6426200D01*
Y6438900D01*
X11023434Y6439066D01*
X11031169Y6450644D01*
X11033886Y6464300D01*
X11031969Y6473934D01*
X11039478Y6478894D01*
X11043673Y6480195D01*
X11054144Y6473199D01*
X11067800Y6470482D01*
X11081456Y6473199D01*
X11093034Y6480934D01*
X11100769Y6492512D01*
X11103486Y6506168D01*
X11100769Y6519824D01*
X11093034Y6531401D01*
X11081456Y6539137D01*
X11067800Y6541854D01*
D02*
G37*
G36*
X10602976Y6499300D02*
X10574360D01*
Y6470684D01*
X10578438Y6471495D01*
X10592661Y6480999D01*
X10602165Y6495222D01*
X10602976Y6499300D01*
D02*
G37*
G36*
X10548960D02*
X10520344D01*
X10521155Y6495222D01*
X10530659Y6480999D01*
X10544882Y6471495D01*
X10548960Y6470684D01*
Y6499300D01*
D02*
G37*
G36*
X11363250Y6555333D02*
X11346667Y6552034D01*
X11332609Y6542641D01*
X11323216Y6528583D01*
X11319917Y6512000D01*
X11323216Y6495417D01*
X11332609Y6481359D01*
X11346667Y6471966D01*
X11363250Y6468667D01*
X11379832Y6471966D01*
X11393891Y6481359D01*
X11403284Y6495417D01*
X11406582Y6512000D01*
X11403284Y6528583D01*
X11393891Y6542641D01*
X11379832Y6552034D01*
X11363250Y6555333D01*
D02*
G37*
G36*
X10950616Y6493468D02*
X10922000D01*
Y6464852D01*
X10926078Y6465663D01*
X10940301Y6475167D01*
X10949805Y6489390D01*
X10950616Y6493468D01*
D02*
G37*
G36*
X10845016Y6565900D02*
X10762384D01*
X10763195Y6561822D01*
X10772699Y6547599D01*
X10786922Y6538095D01*
X10798592Y6535774D01*
X10805423Y6523137D01*
X10805295Y6522946D01*
X10804484Y6518868D01*
X10845800D01*
Y6493468D01*
X10804484D01*
X10805295Y6489390D01*
X10810052Y6482271D01*
X10803700Y6470586D01*
X10790044Y6467869D01*
X10778466Y6460134D01*
X10770731Y6448556D01*
X10768014Y6434900D01*
X10770731Y6421244D01*
X10778466Y6409666D01*
X10790044Y6401931D01*
X10803700Y6399214D01*
X10817356Y6401931D01*
X10828934Y6409666D01*
X10836669Y6421244D01*
X10839386Y6434900D01*
X10836669Y6448556D01*
X10834638Y6451597D01*
X10842275Y6463027D01*
X10845800Y6462325D01*
X10862578Y6465663D01*
X10876801Y6475167D01*
X10878299D01*
X10892522Y6465663D01*
X10896600Y6464852D01*
Y6506168D01*
Y6547484D01*
X10892522Y6546673D01*
X10878299Y6537169D01*
X10876801D01*
X10862578Y6546673D01*
X10850908Y6548994D01*
X10844077Y6561631D01*
X10844205Y6561822D01*
X10845016Y6565900D01*
D02*
G37*
G36*
X11201316Y6515100D02*
X11118684D01*
X11119495Y6511022D01*
X11128017Y6498269D01*
X11126755Y6490853D01*
X11124397Y6484600D01*
X11124244Y6484569D01*
X11112666Y6476834D01*
X11104931Y6465256D01*
X11102214Y6451600D01*
X11104931Y6437944D01*
X11112666Y6426366D01*
X11112915Y6426200D01*
Y6413500D01*
X11112666Y6413334D01*
X11104931Y6401756D01*
X11102214Y6388100D01*
X11104931Y6374444D01*
X11112666Y6362866D01*
X11124244Y6355131D01*
X11137900Y6352414D01*
X11151556Y6355131D01*
X11163134Y6362866D01*
X11170869Y6374444D01*
X11173586Y6388100D01*
X11170869Y6401756D01*
X11163134Y6413334D01*
X11162885Y6413500D01*
Y6426200D01*
X11163134Y6426366D01*
X11170869Y6437944D01*
X11173586Y6451600D01*
X11170869Y6465256D01*
X11166201Y6472242D01*
X11170211Y6485194D01*
X11171020Y6486150D01*
X11176778Y6487295D01*
X11191001Y6496799D01*
X11200505Y6511022D01*
X11201316Y6515100D01*
D02*
G37*
G36*
X9563100Y6646590D02*
X9542216Y6643841D01*
X9522755Y6635780D01*
X9506043Y6622957D01*
X9493220Y6606245D01*
X9485159Y6586784D01*
X9482410Y6565900D01*
X9485159Y6545016D01*
X9493220Y6525555D01*
X9506043Y6508843D01*
X9522755Y6496020D01*
X9542216Y6487959D01*
X9563100Y6485210D01*
X9583984Y6487959D01*
X9603445Y6496020D01*
X9620157Y6508843D01*
X9632980Y6525555D01*
X9641041Y6545016D01*
X9641374Y6547547D01*
X9695198D01*
X9786240Y6456506D01*
X9782060Y6442725D01*
X9774922Y6441305D01*
X9760699Y6431801D01*
X9751195Y6417578D01*
X9749608Y6409602D01*
X9740900Y6398386D01*
X9727244Y6395669D01*
X9715666Y6387934D01*
X9707931Y6376356D01*
X9705214Y6362700D01*
X9707931Y6349044D01*
X9712001Y6342953D01*
X9705343Y6330253D01*
X9641374D01*
X9641041Y6332784D01*
X9632980Y6352245D01*
X9620157Y6368957D01*
X9603445Y6381780D01*
X9583984Y6389841D01*
X9563100Y6392590D01*
X9542216Y6389841D01*
X9522755Y6381780D01*
X9506043Y6368957D01*
X9493220Y6352245D01*
X9485159Y6332784D01*
X9482410Y6311900D01*
X9485159Y6291016D01*
X9493220Y6271555D01*
X9506043Y6254843D01*
X9522755Y6242020D01*
X9542216Y6233959D01*
X9563100Y6231210D01*
X9583984Y6233959D01*
X9603445Y6242020D01*
X9620157Y6254843D01*
X9632980Y6271555D01*
X9641041Y6291016D01*
X9641374Y6293547D01*
X9733298D01*
X9804123Y6222723D01*
X9810077Y6218744D01*
X9817100Y6217347D01*
X9844475D01*
X9851636Y6204647D01*
X9850793Y6203253D01*
X9831820D01*
X9824796Y6201856D01*
X9818843Y6197877D01*
X9662517Y6041551D01*
X9655117Y6045200D01*
X9563100D01*
X9476013D01*
X9477365Y6034927D01*
X9486232Y6013520D01*
X9491646Y6006465D01*
X9486623Y6001441D01*
X9482644Y5995488D01*
X9481247Y5988464D01*
Y5963902D01*
X9447108Y5929762D01*
X9430758Y5931373D01*
X9429001Y5934001D01*
X9414778Y5943505D01*
X9410700Y5944316D01*
Y5903000D01*
Y5861684D01*
X9414778Y5862495D01*
X9429001Y5871999D01*
X9435721Y5882055D01*
X9447429Y5882618D01*
X9456747Y5873222D01*
Y5805549D01*
X9458144Y5798526D01*
X9462123Y5792572D01*
X9468547Y5786147D01*
Y5770231D01*
X9461666Y5765634D01*
X9453931Y5754056D01*
X9451214Y5740400D01*
X9453931Y5726744D01*
X9461666Y5715166D01*
X9471795Y5708399D01*
X9475018Y5701580D01*
X9476861Y5695504D01*
X9435823Y5654466D01*
X9431844Y5648512D01*
X9431241Y5645479D01*
X9421926Y5639967D01*
X9417747Y5639221D01*
X9414778Y5641205D01*
X9410700Y5642016D01*
Y5600700D01*
X9398000D01*
Y5588000D01*
X9356684D01*
X9357495Y5583922D01*
X9366999Y5569699D01*
X9381222Y5560195D01*
X9395117Y5557431D01*
X9398177Y5556567D01*
X9405047Y5545310D01*
Y5511800D01*
X9406444Y5504777D01*
X9410423Y5498823D01*
X9448523Y5460723D01*
X9454477Y5456744D01*
X9461500Y5455347D01*
X9525000D01*
X9532023Y5456744D01*
X9537977Y5460723D01*
X9691340Y5614086D01*
X9701205Y5605990D01*
X9700395Y5604778D01*
X9699584Y5600700D01*
X9728200D01*
Y5629316D01*
X9724122Y5628505D01*
X9722910Y5627695D01*
X9714814Y5637560D01*
X9926494Y5849240D01*
X9940275Y5845060D01*
X9941695Y5837922D01*
X9951199Y5823699D01*
X9965422Y5814195D01*
X9969500Y5813384D01*
Y5854700D01*
X9982200D01*
Y5867400D01*
X10023516D01*
X10022705Y5871478D01*
X10013201Y5885701D01*
X9998978Y5895205D01*
X9997541Y5895491D01*
Y5908440D01*
X10008556Y5910631D01*
X10020134Y5918366D01*
X10026901Y5928495D01*
X10033720Y5931718D01*
X10039796Y5933561D01*
X10157034Y5816323D01*
X10162988Y5812344D01*
X10170011Y5810947D01*
X10380998D01*
X10436010Y5755936D01*
X10427914Y5746071D01*
X10422679Y5749569D01*
X10409022Y5752286D01*
X10395366Y5749569D01*
X10383789Y5741834D01*
X10376053Y5730256D01*
X10373337Y5716600D01*
X10376053Y5702944D01*
X10383789Y5691366D01*
X10395366Y5683631D01*
X10409022Y5680914D01*
X10422679Y5683631D01*
X10434256Y5691366D01*
X10441992Y5702944D01*
X10444708Y5716600D01*
X10441992Y5730256D01*
X10438493Y5735492D01*
X10448358Y5743588D01*
X10680423Y5511523D01*
X10686377Y5507544D01*
X10693400Y5506147D01*
X10711198D01*
X10764458Y5452888D01*
X10762031Y5449256D01*
X10759314Y5435600D01*
X10762031Y5421944D01*
X10769766Y5410366D01*
X10781344Y5402631D01*
X10795000Y5399914D01*
X10808656Y5402631D01*
X10820234Y5410366D01*
X10827969Y5421944D01*
X10830686Y5435600D01*
X10827969Y5449256D01*
X10820234Y5460834D01*
X10808656Y5468569D01*
X10798706Y5470549D01*
X10737707Y5531547D01*
X10742967Y5544247D01*
X11028698D01*
X11056047Y5516898D01*
Y5490831D01*
X11049166Y5486234D01*
X11041431Y5474656D01*
X11038714Y5461000D01*
X11041431Y5447344D01*
X11049166Y5435766D01*
X11060744Y5428031D01*
X11074400Y5425314D01*
X11088056Y5428031D01*
X11099634Y5435766D01*
X11107369Y5447344D01*
X11110086Y5461000D01*
X11107369Y5474656D01*
X11099634Y5486234D01*
X11092753Y5490831D01*
Y5524500D01*
X11091356Y5531523D01*
X11087377Y5537477D01*
X11055207Y5569647D01*
X11060467Y5582347D01*
X11168398D01*
X11226523Y5524223D01*
X11232477Y5520244D01*
X11239500Y5518847D01*
X11506200D01*
X11513223Y5520244D01*
X11519177Y5524223D01*
X11601202Y5606247D01*
X11743069D01*
X11747666Y5599366D01*
X11759244Y5591631D01*
X11772900Y5588914D01*
X11786556Y5591631D01*
X11798134Y5599366D01*
X11805869Y5610944D01*
X11808586Y5624600D01*
X11805869Y5638256D01*
X11798134Y5649834D01*
X11786556Y5657569D01*
X11772900Y5660286D01*
X11759244Y5657569D01*
X11747666Y5649834D01*
X11743069Y5642952D01*
X11593600D01*
X11586577Y5641555D01*
X11580623Y5637577D01*
X11498598Y5555553D01*
X11247102D01*
X11188977Y5613677D01*
X11183023Y5617656D01*
X11176000Y5619053D01*
X10810098D01*
X10582567Y5846583D01*
X10584182Y5854700D01*
X10581465Y5868356D01*
X10573729Y5879934D01*
X10562152Y5887669D01*
X10548496Y5890386D01*
X10534839Y5887669D01*
X10523262Y5879934D01*
X10515527Y5868356D01*
X10512810Y5854700D01*
X10515527Y5841044D01*
X10523262Y5829466D01*
X10534839Y5821731D01*
X10548496Y5819014D01*
X10556613Y5820629D01*
X10783589Y5593653D01*
X10778328Y5580953D01*
X10713702D01*
X10420627Y5874027D01*
X10414673Y5878006D01*
X10407650Y5879403D01*
X10250152D01*
X10084077Y6045477D01*
X10078123Y6049456D01*
X10071100Y6050853D01*
X9935831D01*
X9931234Y6057734D01*
X9919656Y6065469D01*
X9906000Y6068186D01*
X9892344Y6065469D01*
X9880766Y6057734D01*
X9873999Y6047605D01*
X9872700Y6046991D01*
X9869788Y6048158D01*
X9860853Y6053551D01*
Y6068169D01*
X9867734Y6072766D01*
X9875469Y6084344D01*
X9878186Y6098000D01*
X9875630Y6110848D01*
X9875648Y6111945D01*
X9882798Y6123548D01*
X9926500D01*
X9933523Y6124945D01*
X9939477Y6128923D01*
X9961383Y6150829D01*
X9969500Y6149214D01*
X9983156Y6151931D01*
X9994734Y6159666D01*
X10002469Y6171244D01*
X10005186Y6184900D01*
X10002469Y6198556D01*
X9998399Y6204647D01*
X10005057Y6217347D01*
X10515600D01*
X10522623Y6218744D01*
X10528577Y6222723D01*
X10558283Y6252429D01*
X10566400Y6250814D01*
X10580056Y6253531D01*
X10591634Y6261266D01*
X10599369Y6272844D01*
X10602086Y6286500D01*
X10599369Y6300156D01*
X10591634Y6311734D01*
X10580056Y6319469D01*
X10566400Y6322186D01*
X10552744Y6319469D01*
X10541166Y6311734D01*
X10533431Y6300156D01*
X10530714Y6286500D01*
X10532329Y6278383D01*
X10507998Y6254053D01*
X10208257D01*
X10201599Y6266753D01*
X10205669Y6272844D01*
X10208386Y6286500D01*
X10205669Y6300156D01*
X10197934Y6311734D01*
X10186356Y6319469D01*
X10172700Y6322186D01*
X10159044Y6319469D01*
X10147466Y6311734D01*
X10142869Y6304853D01*
X9989802D01*
X9715777Y6578877D01*
X9709823Y6582856D01*
X9702800Y6584253D01*
X9641374D01*
X9641041Y6586784D01*
X9632980Y6606245D01*
X9620157Y6622957D01*
X9603445Y6635780D01*
X9583984Y6643841D01*
X9563100Y6646590D01*
D02*
G37*
G36*
X10071100Y6995286D02*
X10057444Y6992569D01*
X10045866Y6984834D01*
X10038131Y6973256D01*
X10035414Y6959600D01*
X10038131Y6945944D01*
X10043350Y6938133D01*
X10036430Y6926560D01*
X10033000Y6927242D01*
X10016222Y6923905D01*
X10001999Y6914401D01*
X9992495Y6900178D01*
X9991684Y6896100D01*
X10033000D01*
Y6870700D01*
X9991684D01*
X9992495Y6866622D01*
X10001999Y6852399D01*
X10016222Y6842895D01*
X10033000Y6839558D01*
X10034426Y6839841D01*
X10040683Y6828137D01*
X9994623Y6782077D01*
X9990644Y6776123D01*
X9989247Y6769100D01*
Y6591300D01*
X9990644Y6584277D01*
X9994623Y6578323D01*
X10087829Y6485117D01*
X10086214Y6477000D01*
X10088931Y6463344D01*
X10096666Y6451766D01*
X10108244Y6444031D01*
X10119064Y6441878D01*
X10123222Y6433748D01*
X10124066Y6428920D01*
X10114298Y6419153D01*
X10024731D01*
X10020134Y6426034D01*
X10008556Y6433769D01*
X9994900Y6436486D01*
X9981244Y6433769D01*
X9969666Y6426034D01*
X9961931Y6414456D01*
X9959214Y6400800D01*
X9961931Y6387144D01*
X9969666Y6375566D01*
X9981244Y6367831D01*
X9994900Y6365114D01*
X10008556Y6367831D01*
X10020134Y6375566D01*
X10024731Y6382447D01*
X10121900D01*
X10128923Y6383844D01*
X10134877Y6387823D01*
X10202683Y6455629D01*
X10210800Y6454014D01*
X10224456Y6456731D01*
X10236034Y6464466D01*
X10243769Y6476044D01*
X10246486Y6489700D01*
X10243769Y6503356D01*
X10236034Y6514934D01*
X10224456Y6522669D01*
X10210800Y6525386D01*
X10197144Y6522669D01*
X10185566Y6514934D01*
X10177831Y6503356D01*
X10175114Y6489700D01*
X10176077Y6484862D01*
X10168444Y6477118D01*
X10156648Y6481711D01*
X10154869Y6490656D01*
X10147134Y6502234D01*
X10135556Y6509969D01*
X10121900Y6512686D01*
X10113783Y6511071D01*
X10025953Y6598902D01*
Y6761498D01*
X10117624Y6853169D01*
X10121900Y6852319D01*
X10135556Y6855035D01*
X10147134Y6862771D01*
X10154869Y6874348D01*
X10157586Y6888005D01*
X10154869Y6901661D01*
X10147134Y6913238D01*
X10135556Y6920974D01*
X10121900Y6923690D01*
X10108244Y6920974D01*
X10096666Y6913238D01*
X10088931Y6901661D01*
X10087545Y6894694D01*
X10074596D01*
X10073505Y6900178D01*
X10065561Y6912067D01*
X10069755Y6921617D01*
X10071679Y6924030D01*
X10084756Y6926631D01*
X10096334Y6934366D01*
X10099569Y6939208D01*
X10329493D01*
X10363015Y6905686D01*
X10358074Y6892666D01*
X10349544Y6890969D01*
X10337966Y6883234D01*
X10330231Y6871656D01*
X10327514Y6858000D01*
X10330231Y6844344D01*
X10337966Y6832766D01*
X10349544Y6825031D01*
X10363200Y6822314D01*
X10376856Y6825031D01*
X10388434Y6832766D01*
X10396169Y6844344D01*
X10397866Y6852874D01*
X10410886Y6857815D01*
X10434580Y6834121D01*
X10431194Y6819546D01*
X10421099Y6812801D01*
X10411595Y6798578D01*
X10410784Y6794500D01*
X10452100D01*
Y6781800D01*
X10464800D01*
Y6740484D01*
X10468878Y6741295D01*
X10483101Y6750799D01*
X10489631Y6760570D01*
X10502182Y6762764D01*
X10511388Y6754838D01*
Y6676720D01*
X10512940Y6668917D01*
X10517360Y6662301D01*
X10569950Y6609711D01*
X10568814Y6604000D01*
X10571531Y6590344D01*
X10579266Y6578766D01*
X10590844Y6571031D01*
X10604500Y6568314D01*
X10610211Y6569450D01*
X10673008Y6506653D01*
Y6426200D01*
X10674560Y6418396D01*
X10678981Y6411781D01*
X10818680Y6272081D01*
X10818681Y6272081D01*
X10825296Y6267660D01*
X10833100Y6266108D01*
X11452331D01*
X11455566Y6261266D01*
X11467144Y6253531D01*
X11480800Y6250814D01*
X11494456Y6253531D01*
X11506034Y6261266D01*
X11513769Y6272844D01*
X11516486Y6286500D01*
X11513769Y6300156D01*
X11506034Y6311734D01*
X11494456Y6319469D01*
X11480800Y6322186D01*
X11467144Y6319469D01*
X11455566Y6311734D01*
X11452331Y6306892D01*
X10841547D01*
X10713792Y6434647D01*
Y6515099D01*
X10713792Y6515100D01*
X10712240Y6522904D01*
X10707819Y6529519D01*
X10707819Y6529520D01*
X10639050Y6598289D01*
X10640186Y6604000D01*
X10637469Y6617656D01*
X10629734Y6629234D01*
X10618156Y6636969D01*
X10604500Y6639686D01*
X10598789Y6638550D01*
X10552172Y6685167D01*
Y6765760D01*
X10550619Y6773563D01*
X10546199Y6780179D01*
X10546198Y6780179D01*
X10352359Y6974019D01*
X10345743Y6978440D01*
X10337939Y6979992D01*
X10099569D01*
X10096334Y6984834D01*
X10084756Y6992569D01*
X10071100Y6995286D01*
D02*
G37*
G36*
X9398000Y6258686D02*
X9384344Y6255969D01*
X9372766Y6248234D01*
X9365031Y6236656D01*
X9362314Y6223000D01*
X9365031Y6209344D01*
X9372766Y6197766D01*
X9384344Y6190031D01*
X9398000Y6187314D01*
X9411656Y6190031D01*
X9423234Y6197766D01*
X9430969Y6209344D01*
X9433686Y6223000D01*
X9430969Y6236656D01*
X9423234Y6248234D01*
X9411656Y6255969D01*
X9398000Y6258686D01*
D02*
G37*
G36*
X9575800Y6144987D02*
Y6070600D01*
X9650187D01*
X9648835Y6080873D01*
X9639968Y6102280D01*
X9625862Y6120662D01*
X9607480Y6134768D01*
X9586073Y6143635D01*
X9575800Y6144987D01*
D02*
G37*
G36*
X9550400D02*
X9540127Y6143635D01*
X9518720Y6134768D01*
X9500338Y6120662D01*
X9486232Y6102280D01*
X9477365Y6080873D01*
X9476013Y6070600D01*
X9550400D01*
Y6144987D01*
D02*
G37*
G36*
X10629900Y6083686D02*
X10616244Y6080969D01*
X10604666Y6073234D01*
X10596931Y6061656D01*
X10594214Y6048000D01*
X10583533Y6036598D01*
X10575022Y6034905D01*
X10560799Y6025401D01*
X10551295Y6011178D01*
X10550484Y6007100D01*
X10633116D01*
X10632305Y6011177D01*
X10633034Y6012938D01*
X10643556Y6015031D01*
X10655134Y6022766D01*
X10662869Y6034344D01*
X10665586Y6048000D01*
X10662869Y6061656D01*
X10655134Y6073234D01*
X10643556Y6080969D01*
X10629900Y6083686D01*
D02*
G37*
G36*
X10633116Y5981700D02*
X10604500D01*
Y5953084D01*
X10608578Y5953895D01*
X10622801Y5963399D01*
X10632305Y5977622D01*
X10633116Y5981700D01*
D02*
G37*
G36*
X10579100D02*
X10550484D01*
X10551295Y5977622D01*
X10560799Y5963399D01*
X10575022Y5953895D01*
X10579100Y5953084D01*
Y5981700D01*
D02*
G37*
G36*
X11172700Y5953514D02*
Y5924898D01*
X11201316D01*
X11200505Y5928976D01*
X11191001Y5943199D01*
X11176778Y5952703D01*
X11172700Y5953514D01*
D02*
G37*
G36*
X9385300Y5944316D02*
X9381222Y5943505D01*
X9366999Y5934001D01*
X9357495Y5919778D01*
X9356684Y5915700D01*
X9385300D01*
Y5944316D01*
D02*
G37*
G36*
X11363250Y5977333D02*
X11346667Y5974034D01*
X11332609Y5964641D01*
X11323216Y5950583D01*
X11319917Y5934000D01*
X11323216Y5917417D01*
X11332609Y5903359D01*
X11346667Y5893966D01*
X11363250Y5890667D01*
X11379832Y5893966D01*
X11393891Y5903359D01*
X11403284Y5917417D01*
X11406582Y5934000D01*
X11403284Y5950583D01*
X11393891Y5964641D01*
X11379832Y5974034D01*
X11363250Y5977333D01*
D02*
G37*
G36*
X10858500Y6207886D02*
X10844844Y6205169D01*
X10833266Y6197434D01*
X10825531Y6185856D01*
X10822814Y6172200D01*
X10825531Y6158544D01*
X10833266Y6146966D01*
X10840147Y6142369D01*
Y5994400D01*
X10841544Y5987377D01*
X10845523Y5981423D01*
X10912054Y5914892D01*
X10914431Y5902944D01*
X10922166Y5891366D01*
X10933744Y5883631D01*
X10947400Y5880914D01*
X10961056Y5883631D01*
X10972634Y5891366D01*
X10980369Y5902944D01*
X10983086Y5916600D01*
X10980369Y5930256D01*
X10972634Y5941834D01*
X10961056Y5949569D01*
X10947400Y5952286D01*
X10933744Y5949569D01*
X10931071Y5947783D01*
X10876853Y6002002D01*
Y6142369D01*
X10883734Y6146966D01*
X10891469Y6158544D01*
X10894186Y6172200D01*
X10891469Y6185856D01*
X10883734Y6197434D01*
X10872156Y6205169D01*
X10858500Y6207886D01*
D02*
G37*
G36*
X9385300Y5890300D02*
X9356684D01*
X9357495Y5886222D01*
X9366999Y5871999D01*
X9381222Y5862495D01*
X9385300Y5861684D01*
Y5890300D01*
D02*
G37*
G36*
X10023516Y5842000D02*
X9994900D01*
Y5813384D01*
X9998978Y5814195D01*
X10013201Y5823699D01*
X10022705Y5837922D01*
X10023516Y5842000D01*
D02*
G37*
G36*
X11368250Y5859587D02*
X11325949D01*
Y5803700D01*
X11435165D01*
X11434500Y5808752D01*
X11427648Y5825293D01*
X11416748Y5839498D01*
X11402543Y5850398D01*
X11386002Y5857250D01*
X11368250Y5859587D01*
D02*
G37*
G36*
X11771250D02*
X11743950D01*
Y5803700D01*
X11838165D01*
X11837499Y5808752D01*
X11830647Y5825293D01*
X11819748Y5839498D01*
X11805543Y5850398D01*
X11789001Y5857250D01*
X11771250Y5859587D01*
D02*
G37*
G36*
X11718550D02*
X11691250D01*
X11673498Y5857250D01*
X11656957Y5850398D01*
X11642752Y5839498D01*
X11631852Y5825293D01*
X11625000Y5808752D01*
X11624335Y5803700D01*
X11718550D01*
Y5859587D01*
D02*
G37*
G36*
X10972800Y5839586D02*
X10959144Y5836869D01*
X10947566Y5829134D01*
X10939831Y5817556D01*
X10937114Y5803900D01*
X10939831Y5790244D01*
X10947566Y5778666D01*
X10959144Y5770931D01*
X10972800Y5768214D01*
X10986456Y5770931D01*
X10998034Y5778666D01*
X11005769Y5790244D01*
X11008486Y5803900D01*
X11005769Y5817556D01*
X10998034Y5829134D01*
X10986456Y5836869D01*
X10972800Y5839586D01*
D02*
G37*
G36*
X10718800Y6068186D02*
X10705144Y6065469D01*
X10693566Y6057734D01*
X10685831Y6046156D01*
X10683114Y6032500D01*
X10685831Y6018844D01*
X10693566Y6007266D01*
X10705144Y5999531D01*
X10718800Y5996814D01*
X10726917Y5998429D01*
X10763947Y5961398D01*
Y5833731D01*
X10757066Y5829134D01*
X10749331Y5817556D01*
X10746614Y5803900D01*
X10749331Y5790244D01*
X10757066Y5778666D01*
X10768644Y5770931D01*
X10782300Y5768214D01*
X10795956Y5770931D01*
X10807534Y5778666D01*
X10815269Y5790244D01*
X10817986Y5803900D01*
X10815269Y5817556D01*
X10807534Y5829134D01*
X10800653Y5833731D01*
Y5969000D01*
X10799256Y5976023D01*
X10795277Y5981977D01*
X10752871Y6024383D01*
X10754486Y6032500D01*
X10751769Y6046156D01*
X10744034Y6057734D01*
X10732456Y6065469D01*
X10718800Y6068186D01*
D02*
G37*
G36*
X11838164Y5778300D02*
X11743950D01*
Y5722413D01*
X11771250D01*
X11789001Y5724751D01*
X11805543Y5731602D01*
X11819748Y5742502D01*
X11830647Y5756707D01*
X11837499Y5773249D01*
X11838164Y5778300D01*
D02*
G37*
G36*
X11718550D02*
X11624335D01*
X11625000Y5773249D01*
X11631852Y5756707D01*
X11642752Y5742502D01*
X11656957Y5731602D01*
X11673498Y5724751D01*
X11691250Y5722413D01*
X11718550D01*
Y5778300D01*
D02*
G37*
G36*
X11125200Y6106286D02*
X11111544Y6103569D01*
X11099966Y6095834D01*
X11092231Y6084256D01*
X11089514Y6070600D01*
X11092231Y6056944D01*
X11099966Y6045366D01*
X11104808Y6042131D01*
Y5967847D01*
X11085381Y5948419D01*
X11080960Y5941804D01*
X11079408Y5934000D01*
Y5800958D01*
X11080960Y5793155D01*
X11085381Y5786539D01*
X11200339Y5671581D01*
X11206954Y5667161D01*
X11214758Y5665608D01*
X11214759Y5665608D01*
X11299931D01*
X11303166Y5660767D01*
X11314744Y5653031D01*
X11328400Y5650315D01*
X11342056Y5653031D01*
X11353634Y5660767D01*
X11361369Y5672344D01*
X11364086Y5686000D01*
X11361369Y5699657D01*
X11354650Y5709713D01*
X11356387Y5716257D01*
X11359762Y5722413D01*
X11368250D01*
X11386002Y5724751D01*
X11402543Y5731602D01*
X11416748Y5742502D01*
X11427648Y5756707D01*
X11434500Y5773249D01*
X11435165Y5778300D01*
X11313249D01*
Y5791000D01*
X11300549D01*
Y5859587D01*
X11258250D01*
X11240498Y5857250D01*
X11223956Y5850398D01*
X11216291Y5844516D01*
X11202294Y5849784D01*
X11200505Y5858778D01*
X11194271Y5868107D01*
X11192025Y5877099D01*
X11194271Y5886091D01*
X11200505Y5895420D01*
X11201316Y5899498D01*
X11160000D01*
Y5912198D01*
X11147300D01*
Y5964458D01*
X11145592Y5966123D01*
Y6042131D01*
X11150434Y6045366D01*
X11158169Y6056944D01*
X11160886Y6070600D01*
X11158169Y6084256D01*
X11150434Y6095834D01*
X11138856Y6103569D01*
X11125200Y6106286D01*
D02*
G37*
G36*
X10185400Y5665916D02*
Y5637300D01*
X10214016D01*
X10213205Y5641378D01*
X10203701Y5655601D01*
X10189478Y5665105D01*
X10185400Y5665916D01*
D02*
G37*
G36*
X10160000D02*
X10155922Y5665105D01*
X10141699Y5655601D01*
X10132195Y5641378D01*
X10131384Y5637300D01*
X10160000D01*
Y5665916D01*
D02*
G37*
G36*
X9385300Y5642016D02*
X9381222Y5641205D01*
X9366999Y5631701D01*
X9357495Y5617478D01*
X9356684Y5613400D01*
X9385300D01*
Y5642016D01*
D02*
G37*
G36*
X9753600Y5629316D02*
Y5600700D01*
X9782216D01*
X9781405Y5604778D01*
X9771901Y5619001D01*
X9757678Y5628505D01*
X9753600Y5629316D01*
D02*
G37*
G36*
X9944100Y5660286D02*
X9930443Y5657569D01*
X9918866Y5649834D01*
X9911131Y5638256D01*
X9908414Y5624600D01*
X9911131Y5610944D01*
X9918866Y5599366D01*
X9930443Y5591631D01*
X9944100Y5588914D01*
X9957756Y5591631D01*
X9969333Y5599366D01*
X9977069Y5610944D01*
X9979785Y5624600D01*
X9977069Y5638256D01*
X9969333Y5649834D01*
X9957756Y5657569D01*
X9944100Y5660286D01*
D02*
G37*
G36*
X10214016Y5611900D02*
X10185400D01*
Y5583284D01*
X10189478Y5584095D01*
X10203701Y5593599D01*
X10213205Y5607822D01*
X10214016Y5611900D01*
D02*
G37*
G36*
X10160000D02*
X10131384D01*
X10132195Y5607822D01*
X10141699Y5593599D01*
X10155922Y5584095D01*
X10160000Y5583284D01*
Y5611900D01*
D02*
G37*
G36*
X9782216Y5575300D02*
X9753600D01*
Y5546684D01*
X9757678Y5547495D01*
X9771901Y5556999D01*
X9781405Y5571222D01*
X9782216Y5575300D01*
D02*
G37*
G36*
X9728200D02*
X9699584D01*
X9700395Y5571222D01*
X9709899Y5556999D01*
X9724122Y5547495D01*
X9728200Y5546684D01*
Y5575300D01*
D02*
G37*
G36*
X10464800Y5547486D02*
X10451144Y5544769D01*
X10439566Y5537034D01*
X10436331Y5532192D01*
X10098081D01*
X10090278Y5530640D01*
X10083662Y5526219D01*
X10083662Y5526219D01*
X10078130Y5520687D01*
X10071100Y5522086D01*
X10057444Y5519369D01*
X10045866Y5511634D01*
X10038131Y5500056D01*
X10035414Y5486400D01*
X10038131Y5472744D01*
X10045866Y5461166D01*
X10057444Y5453431D01*
X10071100Y5450714D01*
X10084756Y5453431D01*
X10096334Y5461166D01*
X10104069Y5472744D01*
X10106786Y5486400D01*
X10118738Y5491408D01*
X10436331D01*
X10439566Y5486566D01*
X10451144Y5478831D01*
X10464800Y5476114D01*
X10478456Y5478831D01*
X10490034Y5486566D01*
X10497769Y5498144D01*
X10500486Y5511800D01*
X10497769Y5525456D01*
X10490034Y5537034D01*
X10478456Y5544769D01*
X10464800Y5547486D01*
D02*
G37*
G36*
X11468100Y5476916D02*
Y5448300D01*
X11496716D01*
X11495905Y5452378D01*
X11486401Y5466601D01*
X11472178Y5476105D01*
X11468100Y5476916D01*
D02*
G37*
G36*
X11442700D02*
X11438622Y5476105D01*
X11424399Y5466601D01*
X11414895Y5452378D01*
X11414084Y5448300D01*
X11442700D01*
Y5476916D01*
D02*
G37*
G36*
X9744668D02*
Y5448300D01*
X9773284D01*
X9772473Y5452378D01*
X9762969Y5466601D01*
X9748746Y5476105D01*
X9744668Y5476916D01*
D02*
G37*
G36*
X9719268D02*
X9715190Y5476105D01*
X9700967Y5466601D01*
X9691463Y5452378D01*
X9690652Y5448300D01*
X9719268D01*
Y5476916D01*
D02*
G37*
G36*
X11496716Y5422900D02*
X11468100D01*
Y5394284D01*
X11472178Y5395095D01*
X11486401Y5404599D01*
X11495905Y5418822D01*
X11496716Y5422900D01*
D02*
G37*
G36*
X11442700D02*
X11414084D01*
X11414895Y5418822D01*
X11424399Y5404599D01*
X11438622Y5395095D01*
X11442700Y5394284D01*
Y5422900D01*
D02*
G37*
G36*
X9773284D02*
X9744668D01*
Y5394284D01*
X9748746Y5395095D01*
X9762969Y5404599D01*
X9772473Y5418822D01*
X9773284Y5422900D01*
D02*
G37*
G36*
X9719268D02*
X9690652D01*
X9691463Y5418822D01*
X9700967Y5404599D01*
X9715190Y5395095D01*
X9719268Y5394284D01*
Y5422900D01*
D02*
G37*
G36*
X10426700Y5441260D02*
Y5346700D01*
X10521260D01*
X10519220Y5362193D01*
X10508338Y5388466D01*
X10491026Y5411026D01*
X10468466Y5428338D01*
X10442193Y5439220D01*
X10426700Y5441260D01*
D02*
G37*
G36*
X10401300D02*
X10385807Y5439220D01*
X10359534Y5428338D01*
X10336974Y5411026D01*
X10319662Y5388466D01*
X10308780Y5362193D01*
X10306740Y5346700D01*
X10401300D01*
Y5441260D01*
D02*
G37*
G36*
X9744668Y5373816D02*
Y5345200D01*
X9773284D01*
X9772473Y5349278D01*
X9762969Y5363501D01*
X9748746Y5373005D01*
X9744668Y5373816D01*
D02*
G37*
G36*
X9719268D02*
X9715190Y5373005D01*
X9700967Y5363501D01*
X9691463Y5349278D01*
X9690652Y5345200D01*
X9719268D01*
Y5373816D01*
D02*
G37*
G36*
X11493500Y5337216D02*
Y5308600D01*
X11522116D01*
X11521305Y5312678D01*
X11511801Y5326901D01*
X11497578Y5336405D01*
X11493500Y5337216D01*
D02*
G37*
G36*
X11468100D02*
X11464022Y5336405D01*
X11449799Y5326901D01*
X11440295Y5312678D01*
X11439484Y5308600D01*
X11468100D01*
Y5337216D01*
D02*
G37*
G36*
X11379200D02*
Y5308600D01*
X11407816D01*
X11407005Y5312678D01*
X11397501Y5326901D01*
X11383278Y5336405D01*
X11379200Y5337216D01*
D02*
G37*
G36*
X11353800D02*
X11349722Y5336405D01*
X11335499Y5326901D01*
X11325995Y5312678D01*
X11325184Y5308600D01*
X11353800D01*
Y5337216D01*
D02*
G37*
G36*
X9410700D02*
Y5308600D01*
X9439316D01*
X9438505Y5312678D01*
X9429001Y5326901D01*
X9414778Y5336405D01*
X9410700Y5337216D01*
D02*
G37*
G36*
X9385300D02*
X9381222Y5336405D01*
X9366999Y5326901D01*
X9357495Y5312678D01*
X9356684Y5308600D01*
X9385300D01*
Y5337216D01*
D02*
G37*
G36*
X11861800Y5369686D02*
X11848144Y5366969D01*
X11836566Y5359234D01*
X11828831Y5347656D01*
X11826114Y5334000D01*
X11828831Y5320344D01*
X11836566Y5308766D01*
X11848144Y5301031D01*
X11861800Y5298314D01*
X11875456Y5301031D01*
X11887034Y5308766D01*
X11894769Y5320344D01*
X11897486Y5334000D01*
X11894769Y5347656D01*
X11887034Y5359234D01*
X11875456Y5366969D01*
X11861800Y5369686D01*
D02*
G37*
G36*
X9773284Y5319800D02*
X9744668D01*
Y5291184D01*
X9748746Y5291995D01*
X9762969Y5301499D01*
X9772473Y5315722D01*
X9773284Y5319800D01*
D02*
G37*
G36*
X9719268D02*
X9690652D01*
X9691463Y5315722D01*
X9700967Y5301499D01*
X9715190Y5291995D01*
X9719268Y5291184D01*
Y5319800D01*
D02*
G37*
G36*
X9617700Y5311816D02*
Y5283200D01*
X9646316D01*
X9645505Y5287278D01*
X9636001Y5301501D01*
X9621778Y5311005D01*
X9617700Y5311816D01*
D02*
G37*
G36*
X9592300D02*
X9588222Y5311005D01*
X9573999Y5301501D01*
X9564495Y5287278D01*
X9563684Y5283200D01*
X9592300D01*
Y5311816D01*
D02*
G37*
G36*
X11522116Y5283200D02*
X11493500D01*
Y5254584D01*
X11497578Y5255395D01*
X11511801Y5264899D01*
X11521305Y5279122D01*
X11522116Y5283200D01*
D02*
G37*
G36*
X11468100D02*
X11439484D01*
X11440295Y5279122D01*
X11449799Y5264899D01*
X11464022Y5255395D01*
X11468100Y5254584D01*
Y5283200D01*
D02*
G37*
G36*
X11407816D02*
X11379200D01*
Y5254584D01*
X11383278Y5255395D01*
X11397501Y5264899D01*
X11407005Y5279122D01*
X11407816Y5283200D01*
D02*
G37*
G36*
X11353800D02*
X11325184D01*
X11325995Y5279122D01*
X11335499Y5264899D01*
X11349722Y5255395D01*
X11353800Y5254584D01*
Y5283200D01*
D02*
G37*
G36*
X9439316D02*
X9410700D01*
Y5254584D01*
X9414778Y5255395D01*
X9429001Y5264899D01*
X9438505Y5279122D01*
X9439316Y5283200D01*
D02*
G37*
G36*
X9385300D02*
X9356684D01*
X9357495Y5279122D01*
X9366999Y5264899D01*
X9381222Y5255395D01*
X9385300Y5254584D01*
Y5283200D01*
D02*
G37*
G36*
X11176000Y5434863D02*
X11149895Y5431426D01*
X11125569Y5421350D01*
X11104679Y5405321D01*
X11088650Y5384431D01*
X11078574Y5360105D01*
X11075137Y5334000D01*
X11078574Y5307895D01*
X11088650Y5283569D01*
X11104679Y5262679D01*
X11125569Y5246650D01*
X11149895Y5236574D01*
X11176000Y5233137D01*
X11202105Y5236574D01*
X11226431Y5246650D01*
X11247321Y5262679D01*
X11263350Y5283569D01*
X11273426Y5307895D01*
X11276863Y5334000D01*
X11273426Y5360105D01*
X11263350Y5384431D01*
X11247321Y5405321D01*
X11226431Y5421350D01*
X11202105Y5431426D01*
X11176000Y5434863D01*
D02*
G37*
G36*
X10922000D02*
X10895895Y5431426D01*
X10871569Y5421350D01*
X10850679Y5405321D01*
X10834650Y5384431D01*
X10824574Y5360105D01*
X10821137Y5334000D01*
X10824574Y5307895D01*
X10834650Y5283569D01*
X10850679Y5262679D01*
X10871569Y5246650D01*
X10895895Y5236574D01*
X10922000Y5233137D01*
X10948105Y5236574D01*
X10972431Y5246650D01*
X10993321Y5262679D01*
X11009350Y5283569D01*
X11019426Y5307895D01*
X11022863Y5334000D01*
X11019426Y5360105D01*
X11009350Y5384431D01*
X10993321Y5405321D01*
X10972431Y5421350D01*
X10948105Y5431426D01*
X10922000Y5434863D01*
D02*
G37*
G36*
X10668000D02*
X10641895Y5431426D01*
X10617569Y5421350D01*
X10596679Y5405321D01*
X10580650Y5384431D01*
X10570574Y5360105D01*
X10567137Y5334000D01*
X10570574Y5307895D01*
X10580650Y5283569D01*
X10596679Y5262679D01*
X10617569Y5246650D01*
X10641895Y5236574D01*
X10668000Y5233137D01*
X10694105Y5236574D01*
X10718431Y5246650D01*
X10739321Y5262679D01*
X10755350Y5283569D01*
X10765426Y5307895D01*
X10768863Y5334000D01*
X10765426Y5360105D01*
X10755350Y5384431D01*
X10739321Y5405321D01*
X10718431Y5421350D01*
X10694105Y5431426D01*
X10668000Y5434863D01*
D02*
G37*
G36*
X10160000D02*
X10133895Y5431426D01*
X10109569Y5421350D01*
X10088679Y5405321D01*
X10072650Y5384431D01*
X10062574Y5360105D01*
X10059137Y5334000D01*
X10062574Y5307895D01*
X10072650Y5283569D01*
X10088679Y5262679D01*
X10109569Y5246650D01*
X10133895Y5236574D01*
X10160000Y5233137D01*
X10186105Y5236574D01*
X10210431Y5246650D01*
X10231321Y5262679D01*
X10247350Y5283569D01*
X10257426Y5307895D01*
X10260863Y5334000D01*
X10257426Y5360105D01*
X10247350Y5384431D01*
X10231321Y5405321D01*
X10210431Y5421350D01*
X10186105Y5431426D01*
X10160000Y5434863D01*
D02*
G37*
G36*
X9906000D02*
X9879895Y5431426D01*
X9855569Y5421350D01*
X9834679Y5405321D01*
X9818650Y5384431D01*
X9808574Y5360105D01*
X9805137Y5334000D01*
X9808574Y5307895D01*
X9818650Y5283569D01*
X9834679Y5262679D01*
X9855569Y5246650D01*
X9879895Y5236574D01*
X9906000Y5233137D01*
X9932105Y5236574D01*
X9956431Y5246650D01*
X9977321Y5262679D01*
X9993350Y5283569D01*
X10003426Y5307895D01*
X10006863Y5334000D01*
X10003426Y5360105D01*
X9993350Y5384431D01*
X9977321Y5405321D01*
X9956431Y5421350D01*
X9932105Y5431426D01*
X9906000Y5434863D01*
D02*
G37*
G36*
X9646316Y5257800D02*
X9617700D01*
Y5229184D01*
X9621778Y5229995D01*
X9636001Y5239499D01*
X9645505Y5253722D01*
X9646316Y5257800D01*
D02*
G37*
G36*
X9592300D02*
X9563684D01*
X9564495Y5253722D01*
X9573999Y5239499D01*
X9588222Y5229995D01*
X9592300Y5229184D01*
Y5257800D01*
D02*
G37*
G36*
X10521260Y5321300D02*
X10426700D01*
Y5226740D01*
X10442193Y5228780D01*
X10468466Y5239662D01*
X10491026Y5256974D01*
X10508338Y5279534D01*
X10519220Y5305807D01*
X10521260Y5321300D01*
D02*
G37*
G36*
X10401300D02*
X10306740D01*
X10308780Y5305807D01*
X10319662Y5279534D01*
X10336974Y5256974D01*
X10359534Y5239662D01*
X10385807Y5228780D01*
X10401300Y5226740D01*
Y5321300D01*
D02*
G37*
%LPD*%
G36*
X9804400Y6359484D02*
X9808478Y6360295D01*
X9822701Y6369799D01*
X9832205Y6384022D01*
X9833625Y6391160D01*
X9847406Y6395340D01*
X9969223Y6273523D01*
X9975177Y6269544D01*
X9982200Y6268147D01*
X10130193D01*
X10131036Y6266753D01*
X10123875Y6254053D01*
X9824702D01*
X9759920Y6318834D01*
X9761542Y6334365D01*
X9761601Y6334438D01*
X9766134Y6337466D01*
X9773869Y6349044D01*
X9776062Y6360068D01*
X9779000Y6359484D01*
Y6400800D01*
X9804400D01*
Y6359484D01*
D02*
G37*
G36*
X9803680Y6086118D02*
X9810499Y6082895D01*
X9817266Y6072766D01*
X9824147Y6068169D01*
Y6035189D01*
X9825544Y6028166D01*
X9829523Y6022212D01*
X9878112Y5973623D01*
X9884066Y5969644D01*
X9891089Y5968247D01*
X9956056D01*
X9959048Y5962649D01*
X9961591Y5955547D01*
X9959214Y5943600D01*
X9960829Y5935483D01*
X9517398Y5492053D01*
X9469102D01*
X9443854Y5517300D01*
X9444949Y5530778D01*
X9450688Y5534242D01*
X9453600Y5535409D01*
X9454899Y5534795D01*
X9461666Y5524666D01*
X9473244Y5516931D01*
X9486900Y5514214D01*
X9500556Y5516931D01*
X9512134Y5524666D01*
X9519869Y5536244D01*
X9522586Y5549900D01*
X9519869Y5563556D01*
X9512134Y5575134D01*
X9505253Y5579731D01*
Y5631198D01*
X9677677Y5803623D01*
X9681656Y5809577D01*
X9683053Y5816600D01*
Y5926398D01*
X9757672Y6001017D01*
X9761650Y6006972D01*
X9763047Y6013995D01*
Y6053404D01*
X9797604Y6087961D01*
X9803680Y6086118D01*
D02*
G37*
%LPC*%
G36*
X9690100Y5776086D02*
X9676444Y5773369D01*
X9664866Y5765634D01*
X9657131Y5754056D01*
X9654414Y5740400D01*
X9657131Y5726744D01*
X9664866Y5715166D01*
X9676444Y5707431D01*
X9690100Y5704714D01*
X9703756Y5707431D01*
X9715334Y5715166D01*
X9723069Y5726744D01*
X9725786Y5740400D01*
X9723069Y5754056D01*
X9715334Y5765634D01*
X9703756Y5773369D01*
X9690100Y5776086D01*
D02*
G37*
%LPD*%
D28*
X10337939Y6959600D02*
X10531780Y6765760D01*
X10071100Y6959600D02*
X10337939D01*
X10531780Y6676720D02*
Y6765760D01*
Y6676720D02*
X10604500Y6604000D01*
X10693400Y6515100D01*
Y6426200D02*
Y6515100D01*
Y6426200D02*
X10833100Y6286500D01*
X11480800D01*
X10098081Y5511800D02*
X10464800D01*
X10072681Y5486400D02*
X10098081Y5511800D01*
X10071100Y5486400D02*
X10072681D01*
X11518900Y6705600D02*
X11582400Y6769100D01*
X11518900Y6413500D02*
Y6705600D01*
X11480800Y6375400D02*
X11518900Y6413500D01*
X11363250Y6375400D02*
X11480800D01*
X11214758Y5686000D02*
X11328400D01*
X11099800Y5800958D02*
X11214758Y5686000D01*
X11099800Y5800958D02*
Y5934000D01*
X11125200Y5959400D01*
Y6070600D01*
D29*
X11593600Y5624600D02*
X11772900D01*
X11506200Y5537200D02*
X11593600Y5624600D01*
X11239500Y5537200D02*
X11506200D01*
X11176000Y5600700D02*
X11239500Y5537200D01*
X10802496Y5600700D02*
X11176000D01*
X10548496Y5854700D02*
X10802496Y5600700D01*
X10121900Y6400800D02*
X10210800Y6489700D01*
X9994900Y6400800D02*
X10121900D01*
X9525000Y5473700D02*
X9994900Y5943600D01*
X9891089Y5986600D02*
X10012711D01*
X10170011Y5829300D01*
X10388600D01*
X9842500Y6035189D02*
X9891089Y5986600D01*
X9461500Y5473700D02*
X9525000D01*
X9423400Y5511800D02*
X9461500Y5473700D01*
X9423400Y5511800D02*
Y5547211D01*
X9448800Y5572611D01*
Y5641489D01*
X9555311Y5748000D01*
Y5834211D01*
X9563100Y5842000D01*
X9926500Y6141900D02*
X9969500Y6184900D01*
X9875489Y6141900D02*
X9926500D01*
X9863574Y6153815D02*
X9875489Y6141900D01*
X9837505Y6153815D02*
X9863574D01*
X9744695Y6061006D02*
X9837505Y6153815D01*
X9744695Y6013995D02*
Y6061006D01*
X9664700Y5934000D02*
X9744695Y6013995D01*
X9603220Y5956300D02*
X9831820Y6184900D01*
X9893300D01*
X9536369Y5956300D02*
X9603220D01*
X9664700Y5816600D02*
Y5934000D01*
X9486900Y5638800D02*
X9664700Y5816600D01*
X9486900Y5549900D02*
Y5638800D01*
X9817100Y6235700D02*
X10515600D01*
X9740900Y6311900D02*
X9817100Y6235700D01*
X10515600D02*
X10566400Y6286500D01*
X9475100Y5895031D02*
X9536369Y5956300D01*
X9475100Y5805549D02*
Y5895031D01*
Y5805549D02*
X9486900Y5793749D01*
Y5740400D02*
Y5793749D01*
X10795000Y5435600D02*
Y5448300D01*
X10718800Y5524500D02*
X10795000Y5448300D01*
X10693400Y5524500D02*
X10718800D01*
X10388600Y5829300D02*
X10693400Y5524500D01*
X9842500Y6035189D02*
Y6098000D01*
X11074400Y5461000D02*
Y5524500D01*
X11036300Y5562600D02*
X11074400Y5524500D01*
X10706100Y5562600D02*
X11036300D01*
X10407650Y5861050D02*
X10706100Y5562600D01*
X10242550Y5861050D02*
X10407650D01*
X10071100Y6032500D02*
X10242550Y5861050D01*
X9906000Y6032500D02*
X10071100D01*
X9499600Y5956300D02*
Y5988464D01*
X9563100Y6051964D01*
Y6057900D01*
X9447000Y5903700D02*
X9499600Y5956300D01*
X9398700Y5903700D02*
X9447000D01*
X9398000Y5903000D02*
X9398700Y5903700D01*
X9629568Y6753432D02*
X9629625D01*
X9652057Y6731000D01*
X9661257D01*
X9563100Y6819900D02*
X9629568Y6753432D01*
X9982200Y6286500D02*
X10172700D01*
X9702800Y6565900D02*
X9982200Y6286500D01*
X9563100Y6565900D02*
X9702800D01*
X9563100Y6311900D02*
X9740900D01*
X10121900Y6883400D02*
Y6888005D01*
X10007600Y6769100D02*
X10121900Y6883400D01*
X10007600Y6591300D02*
Y6769100D01*
Y6591300D02*
X10121900Y6477000D01*
X10936300Y5916600D02*
X10947400D01*
X10858500Y5994400D02*
X10936300Y5916600D01*
X10858500Y5994400D02*
Y6172200D01*
X10718800Y6032500D02*
X10782300Y5969000D01*
Y5803900D02*
Y5969000D01*
D31*
X10414000Y5334000D02*
D03*
X10668000D02*
D03*
X10160000D02*
D03*
X9906000D02*
D03*
X10922000D02*
D03*
X11176000D02*
D03*
X10414000Y7112000D02*
D03*
X10668000D02*
D03*
X10160000D02*
D03*
X9906000D02*
D03*
X10922000D02*
D03*
X11176000D02*
D03*
D32*
X11731250Y6655000D02*
D03*
Y5791000D02*
D03*
D33*
X11313250Y6655000D02*
D03*
Y5791000D02*
D03*
D34*
X9779000Y6741645D02*
D03*
X11090000Y6682944D02*
D03*
X11480800Y5295900D02*
D03*
X11366500D02*
D03*
X9731968Y5435600D02*
D03*
Y5332500D02*
D03*
X10561660Y6512000D02*
D03*
X10071100Y6959600D02*
D03*
X10604500Y6604000D02*
D03*
X10998200Y6400800D02*
D03*
X11067800Y6506168D02*
D03*
X11480800Y6286500D02*
D03*
X10464800Y5511800D02*
D03*
X10071100Y5486400D02*
D03*
X11582400Y6769100D02*
D03*
X11363250Y6375400D02*
D03*
X11137900Y6388100D02*
D03*
X11328400Y5686000D02*
D03*
X11125200Y6070600D02*
D03*
X11160000Y5912198D02*
D03*
Y5842000D02*
D03*
X11772900Y5624600D02*
D03*
X10548496Y5854700D02*
D03*
X10210800Y6489700D02*
D03*
X9994900Y6400800D02*
D03*
Y5943600D02*
D03*
X9969500Y6184900D02*
D03*
X9486900Y5549900D02*
D03*
X9893300Y6184900D02*
D03*
X9486900Y5740400D02*
D03*
X10795000Y5435600D02*
D03*
X9842500Y6098000D02*
D03*
X11074400Y5461000D02*
D03*
X9906000Y6032500D02*
D03*
X10172700Y5624600D02*
D03*
X9982200Y5854700D02*
D03*
X9791700Y6400800D02*
D03*
X9740900Y6362700D02*
D03*
X9661257Y6731000D02*
D03*
X10172700Y6286500D02*
D03*
X10566400D02*
D03*
X10121900Y6888005D02*
D03*
Y6477000D02*
D03*
X9690100Y5740400D02*
D03*
X10409022Y5716600D02*
D03*
X10591800Y5994400D02*
D03*
X10629900Y6048000D02*
D03*
X9740900Y5588000D02*
D03*
X9944100Y5624600D02*
D03*
X9605000Y5270500D02*
D03*
X9398000Y5295900D02*
D03*
Y5600700D02*
D03*
Y5903000D02*
D03*
Y6223000D02*
D03*
X9410700Y6543000D02*
D03*
X9347200Y6883400D02*
D03*
Y6804130D02*
D03*
X9702800Y7112000D02*
D03*
Y7023100D02*
D03*
X9860689Y6789011D02*
D03*
X10033000Y6883400D02*
D03*
X10121900Y6591300D02*
D03*
X10452100Y6781800D02*
D03*
X10363200Y6858000D02*
D03*
X10210800Y6807200D02*
D03*
X11544300Y7021600D02*
D03*
X11861800Y7112000D02*
D03*
X10947400Y5916600D02*
D03*
X10858500Y6172200D02*
D03*
X10718800Y6032500D02*
D03*
X10782300Y5803900D02*
D03*
X10972800D02*
D03*
X11160000Y6591300D02*
D03*
Y6527800D02*
D03*
X10538070Y6870700D02*
D03*
X10803700Y6756400D02*
D03*
X10807700Y6908800D02*
D03*
X10803700Y6434900D02*
D03*
Y6578600D02*
D03*
X10909300Y6506168D02*
D03*
X10845800D02*
D03*
X10998200Y6464300D02*
D03*
X11137900Y6451600D02*
D03*
X11455400Y5435600D02*
D03*
X11861800Y5334000D02*
D03*
D35*
X9563100Y6057900D02*
D03*
Y6311900D02*
D03*
Y6565900D02*
D03*
Y6819900D02*
D03*
Y5842000D02*
D03*
%TF.MD5,93dd67810ec813d2b0d8a5eb6499f77c*%
M02*
