%TF.GenerationSoftware,Altium Limited,Altium Designer,19.0.15 (446)*%
G04 Layer_Color=16711935*
%FSLAX45Y45*%
%MOMM*%
%TF.FileFunction,Other,Mechanical_13*%
%TF.Part,Single*%
G01*
G75*
%TA.AperFunction,NonConductor*%
%ADD45C,0.10000*%
D45*
X10096630Y6594556D02*
G03*
X10096630Y6594556I-50000J0D01*
G01*
X11621900Y6886700D02*
Y6981700D01*
X11796900Y6886700D02*
Y6981700D01*
X11621900D02*
X11796900D01*
X11621900Y6886700D02*
X11796900D01*
X9350500Y6273700D02*
X9445500D01*
X9350500Y6448700D02*
X9445500D01*
X9350500Y6273700D02*
Y6448700D01*
X9445500Y6273700D02*
Y6448700D01*
X9350500Y5652900D02*
X9445500D01*
X9350500Y5827900D02*
X9445500D01*
X9350500Y5652900D02*
Y5827900D01*
X9445500Y5652900D02*
Y5827900D01*
X9386700Y6581900D02*
Y6676900D01*
X9561700Y6581900D02*
Y6676900D01*
X9386700D02*
X9561700D01*
X9386700Y6581900D02*
X9561700D01*
X9553700Y5322700D02*
X9648700D01*
X9553700Y5497700D02*
X9648700D01*
X9553700Y5322700D02*
Y5497700D01*
X9648700Y5322700D02*
Y5497700D01*
X11407900Y5675500D02*
X11502900D01*
X11407900Y5500500D02*
X11502900D01*
Y5675500D01*
X11407900Y5500500D02*
Y5675500D01*
X11009500Y5515100D02*
Y5610100D01*
X10834500Y5515100D02*
Y5610100D01*
Y5515100D02*
X11009500D01*
X10834500Y5610100D02*
X11009500D01*
X10832800Y5886600D02*
X11112800D01*
X10832800Y5746600D02*
X11112800D01*
Y5886600D01*
X10832800Y5746600D02*
Y5886600D01*
X11407900Y7174100D02*
X11502900D01*
X11407900Y6999100D02*
X11502900D01*
Y7174100D01*
X11407900Y6999100D02*
Y7174100D01*
X10658600Y5652900D02*
X10753600D01*
X10658600Y5827900D02*
X10753600D01*
X10658600Y5652900D02*
Y5827900D01*
X10753600Y5652900D02*
Y5827900D01*
X11621900Y7064500D02*
Y7159500D01*
X11796900Y7064500D02*
Y7159500D01*
X11621900D02*
X11796900D01*
X11621900Y7064500D02*
X11796900D01*
X11796900Y5286500D02*
Y5381500D01*
X11621900Y5286500D02*
Y5381500D01*
Y5286500D02*
X11796900D01*
X11621900Y5381500D02*
X11796900D01*
X11621900Y5464300D02*
X11796900D01*
X11621900Y5559300D02*
X11796900D01*
Y5464300D02*
Y5559300D01*
X11621900Y5464300D02*
Y5559300D01*
X11314300Y5515100D02*
Y5610100D01*
X11139300Y5515100D02*
Y5610100D01*
Y5515100D02*
X11314300D01*
X11139300Y5610100D02*
X11314300D01*
X10696700Y6110500D02*
X10791700D01*
X10696700Y6285500D02*
X10791700D01*
X10696700Y6110500D02*
Y6285500D01*
X10791700Y6110500D02*
Y6285500D01*
X10389577Y6660941D02*
X10456752Y6728116D01*
X10265833Y6784684D02*
X10333009Y6851859D01*
X10265833Y6784684D02*
X10389577Y6660941D01*
X10333009Y6851859D02*
X10456752Y6728116D01*
X10832800Y6483200D02*
X11112800D01*
X10832800Y6623200D02*
X11112800D01*
X10832800Y6483200D02*
Y6623200D01*
X11112800Y6483200D02*
Y6623200D01*
X10671300Y6589900D02*
X10766300D01*
X10671300Y6414900D02*
X10766300D01*
Y6589900D01*
X10671300Y6414900D02*
Y6589900D01*
X10195123Y5597816D02*
X10262298Y5530641D01*
X10318867Y5721559D02*
X10386042Y5654384D01*
X10195123Y5597816D02*
X10318867Y5721559D01*
X10262298Y5530641D02*
X10386042Y5654384D01*
X9747041Y5628984D02*
X9814216Y5696159D01*
X9870784Y5505241D02*
X9937959Y5572416D01*
X9814216Y5696159D02*
X9937959Y5572416D01*
X9747041Y5628984D02*
X9870784Y5505241D01*
X11168000Y6917600D02*
X11438000D01*
X11168000Y6747600D02*
X11438000D01*
X11168000D02*
Y6917600D01*
X11438000Y6747600D02*
Y6917600D01*
X10885300Y6239000D02*
Y6334000D01*
X11060300Y6239000D02*
Y6334000D01*
X10885300D02*
X11060300D01*
X10885300Y6239000D02*
X11060300D01*
X10783700Y6785100D02*
Y6880100D01*
X10958700Y6785100D02*
Y6880100D01*
X10783700D02*
X10958700D01*
X10783700Y6785100D02*
X10958700D01*
X9968100Y6835900D02*
Y6930900D01*
X9793100Y6835900D02*
Y6930900D01*
Y6835900D02*
X9968100D01*
X9793100Y6930900D02*
X9968100D01*
X9350500Y5957700D02*
X9445500D01*
X9350500Y6132700D02*
X9445500D01*
X9350500Y5957700D02*
Y6132700D01*
X9445500Y5957700D02*
Y6132700D01*
X9350500Y5348100D02*
X9445500D01*
X9350500Y5523100D02*
X9445500D01*
X9350500Y5348100D02*
Y5523100D01*
X9445500Y5348100D02*
Y5523100D01*
X10569700Y6894700D02*
X10664700D01*
X10569700Y6719700D02*
X10664700D01*
Y6894700D01*
X10569700Y6719700D02*
Y6894700D01*
X10480800Y5602100D02*
X10575800D01*
X10480800Y5777100D02*
X10575800D01*
X10480800Y5602100D02*
Y5777100D01*
X10575800Y5602100D02*
Y5777100D01*
X9553700Y5627500D02*
X9648700D01*
X9553700Y5802500D02*
X9648700D01*
X9553700Y5627500D02*
Y5802500D01*
X9648700Y5627500D02*
Y5802500D01*
X9395000Y6794600D02*
Y7124600D01*
X9655000Y6794600D02*
Y7124600D01*
X9395000Y6794600D02*
X9655000D01*
X9395000Y7124600D02*
X9655000D01*
X9551656Y6226861D02*
X10046630Y5731886D01*
Y6721835D02*
X10541605Y6226861D01*
X10046630Y5731886D02*
X10541605Y6226861D01*
X9551656D02*
X10046630Y6721835D01*
%TF.MD5,5d805d3e8bab15ba80fe3bf2e29e1b0e*%
M02*
