%TF.GenerationSoftware,Altium Limited,Altium Designer,19.0.15 (446)*%
G04 Layer_Color=0*
%FSLAX45Y45*%
%MOMM*%
%TF.FileFunction,Plated,1,4,PTH,Drill*%
%TF.Part,Single*%
G01*
G75*
%TA.AperFunction,ComponentDrill*%
%ADD68C,0.90000*%
%ADD69O,1.40000X0.60000*%
%ADD70O,1.70000X0.60000*%
%ADD71C,0.65000*%
%TA.AperFunction,ViaDrill,NotFilled*%
%ADD72C,0.30000*%
D68*
X10414000Y5334000D02*
D03*
X10668000D02*
D03*
X10160000D02*
D03*
X9906000D02*
D03*
X10922000D02*
D03*
X11176000D02*
D03*
X10414000Y7112000D02*
D03*
X10668000D02*
D03*
X10160000D02*
D03*
X9906000D02*
D03*
X10922000D02*
D03*
X11176000D02*
D03*
D69*
X11731250Y6655000D02*
D03*
Y5791000D02*
D03*
D70*
X11313250Y6655000D02*
D03*
Y5791000D02*
D03*
D71*
X11363250Y5934000D02*
D03*
Y6512000D02*
D03*
D72*
X9779000Y6741645D02*
D03*
X11090000Y6682944D02*
D03*
X11480800Y5295900D02*
D03*
X11366500D02*
D03*
X9731968Y5435600D02*
D03*
Y5332500D02*
D03*
X10561660Y6512000D02*
D03*
X10071100Y6959600D02*
D03*
X10604500Y6604000D02*
D03*
X10998200Y6400800D02*
D03*
X11067800Y6506168D02*
D03*
X11480800Y6286500D02*
D03*
X10464800Y5511800D02*
D03*
X10071100Y5486400D02*
D03*
X11582400Y6769100D02*
D03*
X11363250Y6375400D02*
D03*
X11137900Y6388100D02*
D03*
X11328400Y5686000D02*
D03*
X11125200Y6070600D02*
D03*
X11160000Y5912198D02*
D03*
Y5842000D02*
D03*
X11772900Y5624600D02*
D03*
X10548496Y5854700D02*
D03*
X10210800Y6489700D02*
D03*
X9994900Y6400800D02*
D03*
Y5943600D02*
D03*
X9969500Y6184900D02*
D03*
X9486900Y5549900D02*
D03*
X9893300Y6184900D02*
D03*
X9486900Y5740400D02*
D03*
X10795000Y5435600D02*
D03*
X9842500Y6098000D02*
D03*
X11074400Y5461000D02*
D03*
X9906000Y6032500D02*
D03*
X10172700Y5624600D02*
D03*
X9982200Y5854700D02*
D03*
X9791700Y6400800D02*
D03*
X9740900Y6362700D02*
D03*
X9661257Y6731000D02*
D03*
X10172700Y6286500D02*
D03*
X10566400D02*
D03*
X10121900Y6888005D02*
D03*
Y6477000D02*
D03*
X9690100Y5740400D02*
D03*
X10409022Y5716600D02*
D03*
X10591800Y5994400D02*
D03*
X10629900Y6048000D02*
D03*
X9740900Y5588000D02*
D03*
X9944100Y5624600D02*
D03*
X9605000Y5270500D02*
D03*
X9398000Y5295900D02*
D03*
Y5600700D02*
D03*
Y5903000D02*
D03*
Y6223000D02*
D03*
X9410700Y6543000D02*
D03*
X9347200Y6883400D02*
D03*
Y6804130D02*
D03*
X9702800Y7112000D02*
D03*
Y7023100D02*
D03*
X9860689Y6789011D02*
D03*
X10033000Y6883400D02*
D03*
X10121900Y6591300D02*
D03*
X10452100Y6781800D02*
D03*
X10363200Y6858000D02*
D03*
X10210800Y6807200D02*
D03*
X11544300Y7021600D02*
D03*
X11861800Y7112000D02*
D03*
X10947400Y5916600D02*
D03*
X10858500Y6172200D02*
D03*
X10718800Y6032500D02*
D03*
X10782300Y5803900D02*
D03*
X10972800D02*
D03*
X11160000Y6591300D02*
D03*
Y6527800D02*
D03*
X10538070Y6870700D02*
D03*
X10803700Y6756400D02*
D03*
X10807700Y6908800D02*
D03*
X10803700Y6434900D02*
D03*
Y6578600D02*
D03*
X10909300Y6506168D02*
D03*
X10845800D02*
D03*
X10998200Y6464300D02*
D03*
X11137900Y6451600D02*
D03*
X11455400Y5435600D02*
D03*
X11861800Y5334000D02*
D03*
%TF.MD5,25e7bae8499048599b7d2d2c743e56d9*%
M02*
