%TF.GenerationSoftware,Altium Limited,Altium Designer,19.0.15 (446)*%
G04 Layer_Color=8421504*
%FSLAX45Y45*%
%MOMM*%
%TF.FileFunction,Paste,Top*%
%TF.Part,Single*%
G01*
G75*
%TA.AperFunction,SMDPad,CuDef*%
%ADD10R,0.80000X0.80000*%
%TA.AperFunction,ConnectorPad*%
%ADD11R,1.30000X0.60000*%
%ADD12R,1.30000X0.30000*%
%TA.AperFunction,SMDPad,CuDef*%
%ADD13R,0.95000X0.85000*%
%ADD14R,0.90000X1.00000*%
%ADD15R,0.85000X0.95000*%
%ADD16R,0.80000X0.90000*%
G04:AMPARAMS|DCode=17|XSize=1mm|YSize=0.9mm|CornerRadius=0mm|HoleSize=0mm|Usage=FLASHONLY|Rotation=225.000|XOffset=0mm|YOffset=0mm|HoleType=Round|Shape=Rectangle|*
%AMROTATEDRECTD17*
4,1,4,0.03535,0.67175,0.67175,0.03535,-0.03535,-0.67175,-0.67175,-0.03535,0.03535,0.67175,0.0*
%
%ADD17ROTATEDRECTD17*%

%ADD18R,0.70000X1.00000*%
%ADD19R,1.00000X0.90000*%
G04:AMPARAMS|DCode=20|XSize=1mm|YSize=0.9mm|CornerRadius=0mm|HoleSize=0mm|Usage=FLASHONLY|Rotation=135.000|XOffset=0mm|YOffset=0mm|HoleType=Round|Shape=Rectangle|*
%AMROTATEDRECTD20*
4,1,4,0.67175,-0.03535,0.03535,-0.67175,-0.67175,0.03535,-0.03535,0.67175,0.67175,-0.03535,0.0*
%
%ADD20ROTATEDRECTD20*%

%ADD21R,1.20000X1.20000*%
%ADD22R,1.20000X1.20000*%
%ADD23R,1.15000X1.40000*%
G04:AMPARAMS|DCode=24|XSize=0.3mm|YSize=1.4mm|CornerRadius=0mm|HoleSize=0mm|Usage=FLASHONLY|Rotation=315.000|XOffset=0mm|YOffset=0mm|HoleType=Round|Shape=Rectangle|*
%AMROTATEDRECTD24*
4,1,4,-0.60104,-0.38891,0.38891,0.60104,0.60104,0.38891,-0.38891,-0.60104,-0.60104,-0.38891,0.0*
%
%ADD24ROTATEDRECTD24*%

G04:AMPARAMS|DCode=25|XSize=0.3mm|YSize=1.4mm|CornerRadius=0mm|HoleSize=0mm|Usage=FLASHONLY|Rotation=45.000|XOffset=0mm|YOffset=0mm|HoleType=Round|Shape=Rectangle|*
%AMROTATEDRECTD25*
4,1,4,0.38891,-0.60104,-0.60104,0.38891,-0.38891,0.60104,0.60104,-0.38891,0.38891,-0.60104,0.0*
%
%ADD25ROTATEDRECTD25*%

D10*
X11634400Y6934200D02*
D03*
X11784400D02*
D03*
Y5511800D02*
D03*
X11634400D02*
D03*
D11*
X11255750Y6543000D02*
D03*
Y6463000D02*
D03*
Y5903000D02*
D03*
Y5983000D02*
D03*
D12*
Y6398000D02*
D03*
Y6348000D02*
D03*
Y6298000D02*
D03*
Y6248000D02*
D03*
Y6198000D02*
D03*
Y6148000D02*
D03*
Y6098000D02*
D03*
Y6048000D02*
D03*
D13*
X9398000Y6296200D02*
D03*
Y6426200D02*
D03*
Y5675400D02*
D03*
Y5805400D02*
D03*
X9601200Y5345200D02*
D03*
Y5475200D02*
D03*
X11455400Y5653000D02*
D03*
Y5523000D02*
D03*
Y7151600D02*
D03*
Y7021600D02*
D03*
X10706100Y5675400D02*
D03*
Y5805400D02*
D03*
X10744200Y6133000D02*
D03*
Y6263000D02*
D03*
X9398000Y5370600D02*
D03*
Y5500600D02*
D03*
X10617200Y6872200D02*
D03*
Y6742200D02*
D03*
X10528300Y5624600D02*
D03*
Y5754600D02*
D03*
X9601200Y5650000D02*
D03*
Y5780000D02*
D03*
D14*
X9406700Y6629400D02*
D03*
X9541700D02*
D03*
X10905300Y6286500D02*
D03*
X11040300D02*
D03*
X10803700Y6832600D02*
D03*
X10938700D02*
D03*
X9948100Y6883400D02*
D03*
X9813100D02*
D03*
D15*
X10987000Y5562600D02*
D03*
X10857000D02*
D03*
X11644400Y7112000D02*
D03*
X11774400D02*
D03*
X11774400Y5334000D02*
D03*
X11644400D02*
D03*
X11291800Y5562600D02*
D03*
X11161800D02*
D03*
D16*
X11067800Y5916600D02*
D03*
X10877800D02*
D03*
X10972800Y5716600D02*
D03*
D17*
X10409022Y6708670D02*
D03*
X10313563Y6804130D02*
D03*
X9794770Y5648430D02*
D03*
X9890230Y5552970D02*
D03*
D18*
X10877800Y6423200D02*
D03*
X11067800D02*
D03*
X10972800Y6683200D02*
D03*
D19*
X10718800Y6569900D02*
D03*
Y6434900D02*
D03*
X9398000Y5977700D02*
D03*
Y6112700D02*
D03*
D20*
X10242853Y5578370D02*
D03*
X10338312Y5673830D02*
D03*
D21*
X11160000Y6832600D02*
D03*
D22*
X11446000D02*
D03*
D23*
X9605000Y6849600D02*
D03*
X9445000D02*
D03*
X9605000Y7069600D02*
D03*
X9445000D02*
D03*
D24*
X10149161Y6718300D02*
D03*
X10184516Y6682944D02*
D03*
X10219872Y6647589D02*
D03*
X10255227Y6612234D02*
D03*
X10290582Y6576878D02*
D03*
X10325937Y6541523D02*
D03*
X10361293Y6506168D02*
D03*
X10396648Y6470813D02*
D03*
X10432003Y6435458D02*
D03*
X10467359Y6400101D02*
D03*
X10502714Y6364746D02*
D03*
X10538070Y6329391D02*
D03*
X9944100Y5735422D02*
D03*
X9908744Y5770777D02*
D03*
X9873389Y5806132D02*
D03*
X9838034Y5841487D02*
D03*
X9802678Y5876843D02*
D03*
X9767323Y5912198D02*
D03*
X9731968Y5947554D02*
D03*
X9696613Y5982909D02*
D03*
X9661257Y6018264D02*
D03*
X9625902Y6053619D02*
D03*
X9590546Y6088975D02*
D03*
X9555191Y6124330D02*
D03*
D25*
X10538070D02*
D03*
X10502714Y6088975D02*
D03*
X10467359Y6053619D02*
D03*
X10432004Y6018264D02*
D03*
X10396648Y5982909D02*
D03*
X10361293Y5947554D02*
D03*
X10325937Y5912198D02*
D03*
X10290582Y5876843D02*
D03*
X10255227Y5841487D02*
D03*
X10219872Y5806132D02*
D03*
X10184516Y5770777D02*
D03*
X10149161Y5735422D02*
D03*
X9555191Y6329391D02*
D03*
X9590546Y6364746D02*
D03*
X9625902Y6400102D02*
D03*
X9661257Y6435457D02*
D03*
X9696613Y6470813D02*
D03*
X9731968Y6506168D02*
D03*
X9767323Y6541523D02*
D03*
X9802678Y6576878D02*
D03*
X9838034Y6612234D02*
D03*
X9873389Y6647589D02*
D03*
X9908744Y6682944D02*
D03*
X9944100Y6718300D02*
D03*
%TF.MD5,759c349a25f91d313751954ee5cd5b72*%
M02*
